<?xml version="1.0" encoding="UTF-8" standalone="no"?>
<!-- Created with Inkscape (http://www.inkscape.org/) -->

<svg
   width="600mm"
   height="400mm"
   viewBox="0 0 600 400"
   version="1.1"
   id="svg1"
   xml:space="preserve"
   inkscape:version="1.4.2 (ebf0e940, 2025-05-08)"
   sodipodi:docname="colors.svg"
   xmlns:inkscape="http://www.inkscape.org/namespaces/inkscape"
   xmlns:sodipodi="http://sodipodi.sourceforge.net/DTD/sodipodi-0.dtd"
   xmlns="http://www.w3.org/2000/svg"
   xmlns:svg="http://www.w3.org/2000/svg"><sodipodi:namedview
     id="namedview1"
     pagecolor="#ffffff"
     bordercolor="#000000"
     borderopacity="0.25"
     inkscape:showpageshadow="true"
     inkscape:pageopacity="0.0"
     inkscape:pagecheckerboard="false"
     inkscape:deskcolor="#ffffff"
     inkscape:document-units="mm"
     showborder="true"
     borderlayer="true"
     showgrid="true"
     inkscape:zoom="0.28730078"
     inkscape:cx="1084.2296"
     inkscape:cy="643.92447"
     inkscape:window-width="1728"
     inkscape:window-height="1080"
     inkscape:window-x="0"
     inkscape:window-y="37"
     inkscape:window-maximized="0"
     inkscape:current-layer="layer1"><inkscape:grid
       id="grid1"
       units="mm"
       originx="-1100"
       originy="-699.99994"
       spacingx="100"
       spacingy="100"
       empcolor="#0099e5"
       empopacity="0.30196078"
       color="#0099e5"
       opacity="0.14902"
       empspacing="5"
       enabled="true"
       visible="true" /></sodipodi:namedview><defs
     id="defs1"><style
       type="text/css"
       id="style1">*{stroke-linejoin: round; stroke-linecap: butt}</style><path
       id="m0e47d80a4f"
       d="M 0,0 V -3"
       style="stroke:#000000;stroke-width:0.8" /><path
       id="ArialMT-31"
       d="M 2384,0 H 1822 V 3584 Q 1619,3391 1289,3197 959,3003 697,2906 v 544 q 472,222 825,537 353,316 500,613 h 362 z"
       transform="scale(0.015625)" /><path
       id="ArialMT-36"
       d="m 3184,3459 -559,-43 q -75,331 -212,481 -229,241 -563,241 -269,0 -472,-150 -265,-194 -419,-566 -153,-372 -159,-1059 203,309 497,459 294,150 616,150 562,0 957,-414 396,-414 396,-1070 0,-432 -186,-802 Q 2894,316 2569,119 2244,-78 1831,-78 1128,-78 684,439 241,956 241,2144 q 0,1328 490,1931 428,525 1153,525 541,0 886,-303 346,-303 414,-838 z M 888,1484 q 0,-290 123,-556 123,-265 345,-405 222,-139 466,-139 356,0 612,287 257,288 257,782 0,475 -254,748 -253,274 -637,274 -381,0 -647,-274 -265,-273 -265,-717 z"
       transform="scale(0.015625)" /><path
       id="ArialMT-32"
       d="M 3222,541 V 0 H 194 q -6,203 65,391 116,309 370,609 255,300 737,694 747,612 1009,970 263,358 263,677 0,334 -240,563 -239,230 -623,230 -406,0 -650,-244 -244,-243 -247,-674 l -578,59 q 59,647 446,986 388,339 1042,339 659,0 1043,-366 385,-365 385,-906 0,-275 -113,-541 Q 2991,2522 2730,2228 2469,1934 1863,1422 1356,997 1212,845 1069,694 975,541 Z"
       transform="scale(0.015625)" /><path
       id="ArialMT-38"
       d="m 1131,2484 q -350,129 -519,366 -168,238 -168,569 0,500 359,840 360,341 956,341 600,0 966,-349 366,-348 366,-848 0,-319 -168,-555 -167,-235 -507,-364 422,-137 642,-444 220,-306 220,-731 0,-587 -416,-987 Q 2447,-78 1769,-78 1091,-78 675,323 259,725 259,1325 q 0,447 227,748 227,302 645,411 z m -112,954 q 0,-325 209,-532 210,-206 544,-206 325,0 533,204 208,205 208,502 0,310 -215,521 -214,211 -532,211 -322,0 -535,-207 -212,-206 -212,-493 z M 838,1322 q 0,-241 114,-466 114,-225 339,-349 225,-123 484,-123 403,0 665,259 263,260 263,660 0,406 -270,672 -270,266 -677,266 -397,0 -658,-263 -260,-262 -260,-656 z"
       transform="scale(0.015625)" /><path
       id="ArialMT-43"
       d="m 3763,1606 606,-153 Q 4178,706 3683,314 3188,-78 2472,-78 1731,-78 1267,223 803,525 561,1097 319,1669 319,2325 q 0,716 273,1248 274,533 778,809 505,277 1111,277 688,0 1156,-350 469,-350 654,-984 l -597,-141 q -160,500 -463,728 -303,229 -762,229 -528,0 -883,-254 -355,-253 -499,-680 -143,-426 -143,-879 0,-584 170,-1020 170,-436 529,-652 360,-215 779,-215 509,0 862,293 354,294 479,872 z"
       transform="scale(0.015625)" /><path
       id="ArialMT-65"
       d="m 2694,1069 581,-72 Q 3138,488 2766,206 2394,-75 1816,-75 1088,-75 661,373 234,822 234,1631 q 0,838 431,1300 432,463 1119,463 666,0 1088,-453 422,-453 422,-1275 0,-50 -3,-150 H 816 q 31,-547 309,-838 278,-290 694,-290 309,0 528,162 219,163 347,519 z M 847,1978 h 1853 q -37,419 -212,628 -269,325 -697,325 -388,0 -652,-259 -264,-259 -292,-694 z"
       transform="scale(0.015625)" /><path
       id="ArialMT-6c"
       d="M 409,0 V 4581 H 972 V 0 Z"
       transform="scale(0.015625)" /><path
       id="ArialMT-2d"
       d="m 203,1375 v 566 h 1728 v -566 z"
       transform="scale(0.015625)" /><path
       id="ArialMT-63"
       d="m 2588,1216 553,-72 Q 3050,572 2676,248 2303,-75 1759,-75 1078,-75 664,370 250,816 250,1647 q 0,537 178,940 178,404 542,605 364,202 793,202 540,0 884,-274 344,-273 441,-776 l -547,-85 q -78,335 -277,503 -198,169 -480,169 -425,0 -691,-305 -265,-304 -265,-963 0,-669 256,-972 257,-303 669,-303 331,0 553,203 222,203 282,625 z"
       transform="scale(0.015625)" /><path
       id="ArialMT-20"
       transform="scale(0.015625)"
       d="" /><path
       id="ArialMT-67"
       d="m 319,-275 547,-81 q 34,-253 190,-369 210,-156 572,-156 391,0 603,156 213,156 288,437 44,172 40,722 Q 2191,0 1641,0 956,0 581,494 206,988 206,1678 q 0,475 172,876 172,402 498,621 327,219 768,219 587,0 969,-475 v 400 h 518 V 450 q 0,-775 -158,-1098 -157,-324 -500,-511 -342,-188 -842,-188 -593,0 -959,267 -366,267 -353,805 z m 465,1994 q 0,-653 259,-953 260,-300 651,-300 387,0 649,298 263,299 263,936 0,609 -270,918 -270,310 -652,310 -375,0 -638,-305 -262,-304 -262,-904 z"
       transform="scale(0.015625)" /><path
       id="ArialMT-61"
       d="M 2588,409 Q 2275,144 1986,34 1697,-75 1366,-75 819,-75 525,192 231,459 231,875 q 0,244 111,445 111,202 291,324 180,122 405,184 165,44 500,85 681,81 1003,193 3,116 3,147 0,344 -160,485 -215,190 -640,190 -397,0 -586,-139 -189,-139 -280,-492 l -550,75 q 75,353 247,570 172,217 497,334 325,118 753,118 425,0 690,-100 266,-100 391,-252 125,-151 175,-383 28,-143 28,-518 v -750 q 0,-785 36,-993 36,-207 143,-398 h -588 q -87,175 -112,409 z m -47,1257 q -307,-125 -919,-213 -347,-50 -491,-113 -143,-62 -222,-182 -78,-120 -78,-267 0,-225 170,-375 171,-150 499,-150 325,0 578,142 253,142 372,389 91,191 91,562 z"
       transform="scale(0.015625)" /><path
       id="ArialMT-70"
       d="m 422,-1272 v 4591 h 512 v -431 q 182,253 410,379 228,127 553,127 425,0 750,-219 325,-219 490,-618 166,-398 166,-873 0,-509 -183,-917 Q 2938,359 2589,142 2241,-75 1856,-75 1575,-75 1351,44 1128,163 984,344 v -1616 z m 509,2913 q 0,-641 259,-947 260,-306 629,-306 375,0 642,317 267,317 267,983 0,634 -261,949 -261,316 -623,316 -360,0 -637,-336 -276,-336 -276,-976 z"
       transform="scale(0.015625)" /><path
       id="ArialMT-3a"
       d="m 578,2678 v 641 h 641 V 2678 Z M 578,0 v 641 h 641 V 0 Z"
       transform="scale(0.015625)" /><path
       id="Cmmi10-70"
       d="m -159,-1241 q -60,0 -60,82 22,140 85,140 200,0 279,36 80,36 124,183 l 722,2881 q 47,119 47,307 0,275 -188,275 -200,0 -297,-240 -97,-239 -187,-604 0,-41 -53,-41 h -75 q -16,0 -35,23 -19,24 -19,43 69,278 133,471 64,194 200,353 136,160 339,160 219,0 384,-124 166,-123 213,-335 175,203 387,331 213,128 438,128 269,0 467,-144 199,-143 299,-376 100,-233 100,-502 0,-412 -211,-853 Q 2722,513 2361,220 2000,-72 1588,-72 1400,-72 1248,34 1097,141 1013,313 L 722,-825 q -16,-94 -19,-109 0,-85 422,-85 66,0 66,-81 -22,-84 -36,-112 -14,-29 -74,-29 z M 1594,97 q 222,0 412,183 191,183 310,411 87,172 163,420 77,248 133,529 57,282 57,448 0,146 -39,274 -39,129 -128,215 -89,86 -236,86 -235,0 -443,-168 -207,-167 -376,-414 v -22 L 1094,647 Q 1138,419 1263,258 1388,97 1594,97 Z"
       transform="scale(0.015625)" /><path
       id="m037b074e98"
       d="M 0,0 H 3"
       style="stroke:#000000;stroke-width:0.8" /><path
       id="ArialMT-30"
       d="m 266,2259 q 0,813 167,1308 167,496 496,764 330,269 830,269 369,0 647,-149 278,-148 459,-428 182,-279 285,-681 103,-401 103,-1083 0,-806 -166,-1301 Q 2922,463 2592,192 2263,-78 1759,-78 1097,-78 719,397 266,969 266,2259 Z m 578,0 q 0,-1128 264,-1502 264,-373 651,-373 388,0 652,375 264,375 264,1500 0,1132 -264,1503 -264,372 -658,372 -387,0 -619,-328 Q 844,3388 844,2259 Z"
       transform="scale(0.015625)" /><path
       id="ArialMT-2e"
       d="m 581,0 v 641 h 641 V 0 Z"
       transform="scale(0.015625)" /><path
       id="ArialMT-35"
       d="m 266,1200 590,50 q 66,-431 305,-649 239,-217 577,-217 406,0 687,306 281,307 281,813 0,481 -270,759 -270,279 -708,279 -272,0 -491,-124 -218,-123 -343,-320 l -528,69 443,2353 H 3088 V 3981 H 1259 L 1013,2750 q 412,288 865,288 600,0 1012,-416 413,-416 413,-1069 Q 3303,931 2941,478 2500,-78 1738,-78 1113,-78 717,272 322,622 266,1200 Z"
       transform="scale(0.015625)" /><path
       id="ArialMT-6f"
       d="m 213,1659 q 0,922 512,1366 428,369 1044,369 684,0 1118,-449 435,-448 435,-1239 0,-640 -192,-1008 Q 2938,331 2570,128 2203,-75 1769,-75 1072,-75 642,372 213,819 213,1659 Z m 578,0 q 0,-637 278,-954 278,-317 700,-317 419,0 697,318 278,319 278,972 0,616 -280,933 -280,317 -695,317 -422,0 -700,-316 -278,-315 -278,-953 z"
       transform="scale(0.015625)" /><path
       id="ArialMT-6d"
       d="m 422,0 v 3319 h 503 v -466 q 156,244 415,392 260,149 591,149 369,0 605,-153 236,-153 333,-428 394,581 1025,581 494,0 759,-274 266,-273 266,-842 V 0 h -560 v 2091 q 0,337 -55,485 -54,149 -198,239 -143,91 -337,91 -350,0 -582,-233 -231,-232 -231,-745 V 0 h -562 v 2156 q 0,375 -138,562 -137,188 -450,188 -237,0 -439,-125 -201,-125 -292,-366 -91,-240 -91,-693 V 0 Z"
       transform="scale(0.015625)" /><path
       id="ArialMT-74"
       d="M 1650,503 1731,6 Q 1494,-44 1306,-44 1000,-44 831,53 663,150 594,308 525,466 525,972 V 2881 H 113 v 438 h 412 v 822 l 559,337 V 3319 h 566 V 2881 H 1084 V 941 q 0,-241 30,-310 30,-68 97,-109 67,-41 192,-41 94,0 247,22 z"
       transform="scale(0.015625)" /><path
       id="ArialMT-69"
       d="m 425,3934 v 647 H 988 V 3934 Z M 425,0 V 3319 H 988 V 0 Z"
       transform="scale(0.015625)" /><path
       id="ArialMT-6e"
       d="m 422,0 v 3319 h 506 v -472 q 366,547 1056,547 300,0 552,-108 252,-108 377,-283 125,-175 175,-415 31,-157 31,-547 V 0 h -563 v 2019 q 0,344 -66,514 -65,170 -232,271 -167,102 -392,102 -360,0 -621,-228 Q 984,2450 984,1813 V 0 Z"
       transform="scale(0.015625)" /><path
       id="Cmmi10-c1"
       d="M 1241,-1247 1528,-91 Q 1203,-91 922,61 641,213 470,484 300,756 300,1075 q 0,347 172,662 172,316 470,574 299,258 642,397 344,139 682,139 l 384,1556 q 13,38 50,38 h 78 q 25,0 40,-22 16,-22 16,-41 L 2450,2847 q 241,0 466,-88 225,-87 398,-245 174,-158 270,-372 97,-214 97,-458 0,-346 -172,-662 Q 3338,706 3047,453 2756,200 2398,54 2041,-91 1716,-91 l -294,-1184 q -13,-38 -53,-38 h -75 q -25,0 -39,24 -14,23 -14,42 z m 328,1325 653,2603 q -163,0 -341,-66 -178,-65 -336,-165 Q 1388,2350 1259,2222 1103,2066 984,1853 866,1641 805,1405 744,1169 744,941 744,700 847,503 950,306 1137,192 1325,78 1569,78 Z m 190,0 q 241,0 513,137 272,138 447,323 240,237 379,582 140,346 140,699 0,237 -104,435 -103,199 -291,313 -187,114 -430,114 z"
       transform="scale(0.015625)" /><path
       id="m98f30e0dce"
       d="M 1,0 H -1" /><path
       id="mf79ea2a809"
       d="M 1,0 H -1" /><path
       id="mbc9fcbd4e3"
       d="M 1,0 H -1" /><path
       id="m28c17f4ad0"
       d="M 1,0 H -1" /><path
       id="m41d1ec0585"
       d="M 1,0 H -1" /><path
       id="mc3e7603b45"
       d="M 1,0 H -1" /><path
       id="m25cc125ab5"
       d="M 0,2 C 0.530406,2 1.03916,1.789267 1.414214,1.414214 1.789267,1.03916 2,0.530406 2,0 2,-0.530406 1.789267,-1.03916 1.414214,-1.414214 1.03916,-1.789267 0.530406,-2 0,-2 -0.530406,-2 -1.03916,-1.789267 -1.414214,-1.414214 -1.789267,-1.03916 -2,-0.530406 -2,0 -2,0.530406 -1.789267,1.03916 -1.414214,1.414214 -1.03916,1.789267 -0.530406,2 0,2 Z" /><path
       id="m0ef10804c5"
       d="M -2,2 H 2 V -2 H -2 Z" /><path
       id="mf7f99c9a08"
       d="M 0,2 C 0.530406,2 1.03916,1.789267 1.414214,1.414214 1.789267,1.03916 2,0.530406 2,0 2,-0.530406 1.789267,-1.03916 1.414214,-1.414214 1.03916,-1.789267 0.530406,-2 0,-2 -0.530406,-2 -1.03916,-1.789267 -1.414214,-1.414214 -1.789267,-1.03916 -2,-0.530406 -2,0 -2,0.530406 -1.789267,1.03916 -1.414214,1.414214 -1.03916,1.789267 -0.530406,2 0,2 Z" /><path
       id="me1799d3a9c"
       d="M -2,2 H 2 V -2 H -2 Z" /><path
       id="m0ffc1056f5"
       d="M 0,2 C 0.530406,2 1.03916,1.789267 1.414214,1.414214 1.789267,1.03916 2,0.530406 2,0 2,-0.530406 1.789267,-1.03916 1.414214,-1.414214 1.03916,-1.789267 0.530406,-2 0,-2 -0.530406,-2 -1.03916,-1.789267 -1.414214,-1.414214 -1.789267,-1.03916 -2,-0.530406 -2,0 -2,0.530406 -1.789267,1.03916 -1.414214,1.414214 -1.03916,1.789267 -0.530406,2 0,2 Z" /><path
       id="m2519ff3c69"
       d="M -2,2 H 2 V -2 H -2 Z" /><path
       id="ArialMT-53"
       d="m 288,1472 571,50 q 41,-344 189,-564 149,-220 461,-356 313,-136 704,-136 346,0 612,103 266,103 395,282 130,180 130,393 0,215 -125,376 -125,161 -412,271 -185,72 -816,223 -631,152 -884,286 -329,172 -490,426 -160,255 -160,571 0,347 196,648 197,302 575,458 379,156 841,156 509,0 898,-164 390,-164 599,-483 209,-318 225,-721 l -581,-44 q -47,434 -318,656 -270,222 -798,222 -550,0 -802,-202 -251,-201 -251,-485 0,-247 178,-407 175,-159 914,-326 739,-167 1014,-292 400,-185 590,-468 191,-282 191,-651 0,-366 -209,-690 Q 3516,281 3123,101 2731,-78 2241,-78 1619,-78 1198,103 778,284 539,648 300,1013 288,1472 Z"
       transform="scale(0.015625)" /><path
       id="ArialMT-66"
       d="M 556,0 V 2881 H 59 v 438 h 497 v 353 q 0,334 60,497 81,219 285,354 205,136 574,136 238,0 525,-56 l -84,-490 q -175,31 -332,31 -256,0 -362,-110 -106,-109 -106,-409 v -306 h 647 V 2881 H 1116 V 0 Z"
       transform="scale(0.015625)" /><path
       id="ArialMT-73"
       d="m 197,991 556,87 q 47,-334 261,-512 214,-178 599,-178 387,0 574,157 188,158 188,371 0,190 -166,300 -115,75 -575,190 -618,157 -857,271 -239,114 -363,315 -123,202 -123,446 0,221 101,410 102,190 277,315 131,96 357,163 227,68 487,68 390,0 685,-113 296,-112 436,-305 141,-192 194,-513 l -550,-75 q -37,256 -217,399 -180,144 -508,144 -387,0 -553,-128 -166,-128 -166,-300 0,-109 69,-197 69,-90 216,-150 84,-31 497,-143 597,-160 832,-262 236,-101 370,-295 135,-193 135,-481 0,-281 -164,-530 Q 2625,197 2315,61 2006,-75 1616,-75 969,-75 630,194 291,463 197,991 Z"
       transform="scale(0.015625)" /><path
       id="Cmmi10-6b"
       d="m 341,116 q 0,37 6,56 l 928,3700 q 25,109 31,172 0,103 -415,103 -66,0 -66,84 3,16 14,56 11,41 28,63 17,22 49,22 l 862,69 h 19 q 0,-7 22,-18 22,-10 25,-14 12,-31 12,-50 L 1184,1684 q 232,97 583,461 352,364 550,523 199,160 499,160 178,0 303,-122 125,-122 125,-300 0,-112 -47,-208 -47,-95 -132,-155 -84,-59 -196,-59 -103,0 -174,64 -70,65 -70,168 0,153 108,257 108,105 261,105 -63,85 -191,85 -190,0 -367,-110 -177,-109 -382,-314 -204,-205 -373,-375 -168,-170 -312,-258 378,-43 656,-198 278,-155 278,-474 0,-65 -25,-165 -56,-241 -56,-385 0,-287 197,-287 231,0 351,253 121,253 199,591 12,37 53,37 h 75 q 25,0 42,-16 17,-15 17,-40 0,-6 -6,-19 -241,-975 -744,-975 -181,0 -320,84 -139,85 -214,230 -75,146 -75,327 0,103 28,212 19,75 19,141 0,247 -219,375 -219,128 -500,156 L 800,147 Q 775,50 703,-11 631,-72 538,-72 q -82,0 -140,55 -57,55 -57,133 z"
       transform="scale(0.015625)" /><path
       id="Cmmi10-63"
       d="m 750,763 q 0,-279 142,-473 142,-193 408,-193 381,0 732,175 352,175 574,484 19,19 50,19 32,0 64,-36 33,-36 33,-67 0,-25 -12,-38 Q 2506,306 2109,117 1713,-72 1288,-72 981,-72 747,73 513,219 384,462 256,706 256,1013 q 0,431 241,856 241,425 641,692 400,267 840,267 288,0 517,-139 230,-139 230,-411 0,-175 -102,-299 -101,-123 -273,-123 -103,0 -174,64 -70,64 -70,168 0,150 109,256 110,106 257,106 h 12 q -75,109 -217,161 -142,52 -295,52 -375,0 -657,-321 Q 1034,2022 892,1576 750,1131 750,763 Z"
       transform="scale(0.015625)" /><path
       id="Cmmi10-65"
       d="M 1288,-72 Q 981,-72 751,87 522,247 401,517 281,788 281,1088 q 0,456 230,857 230,402 623,642 394,241 844,241 275,0 480,-142 205,-142 205,-408 0,-369 -294,-549 -294,-179 -663,-221 -368,-42 -815,-42 H 872 Q 769,1084 769,813 769,528 900,312 1031,97 1300,97 q 381,0 732,175 352,175 574,484 19,19 50,19 32,0 64,-36 33,-36 33,-67 0,-25 -12,-38 Q 2506,306 2109,117 1713,-72 1288,-72 Z M 909,1631 q 372,0 688,34 316,35 572,174 256,139 256,433 0,119 -66,208 -65,89 -170,136 -105,47 -217,47 -272,0 -489,-147 -217,-147 -358,-383 -141,-236 -216,-502 z"
       transform="scale(0.015625)" /><path
       id="Cmmi10-6c"
       d="m 281,519 q 0,19 5,56 5,38 9,73 5,36 5,55 l 794,3169 q 25,109 31,172 0,103 -416,103 -62,0 -62,84 3,16 14,56 11,41 28,63 17,22 49,22 l 862,69 q 78,0 78,-82 L 756,678 Q 709,575 709,372 709,97 897,97 q 197,0 295,245 99,246 177,599 12,37 53,37 h 75 q 25,0 42,-20 17,-20 17,-42 Q 1481,606 1420,426 1359,247 1225,87 1091,-72 884,-72 628,-72 454,93 281,259 281,519 Z"
       transform="scale(0.015625)" /><clipPath
       id="pa71e7877ce"><rect
         x="35.220001"
         y="10.063125"
         width="129.94521"
         height="97.80822"
         id="rect1641" /></clipPath><style
       type="text/css"
       id="style1-4">*{stroke-linejoin: round; stroke-linecap: butt}</style><path
       id="m9a905c03ec"
       d="M 0,0 V -3"
       style="stroke:#000000;stroke-width:0.8" /><path
       id="ArialMT-31-3"
       d="M 2384,0 H 1822 V 3584 Q 1619,3391 1289,3197 959,3003 697,2906 v 544 q 472,222 825,537 353,316 500,613 h 362 z"
       transform="scale(0.015625)" /><path
       id="ArialMT-36-0"
       d="m 3184,3459 -559,-43 q -75,331 -212,481 -229,241 -563,241 -269,0 -472,-150 -265,-194 -419,-566 -153,-372 -159,-1059 203,309 497,459 294,150 616,150 562,0 957,-414 396,-414 396,-1070 0,-432 -186,-802 Q 2894,316 2569,119 2244,-78 1831,-78 1128,-78 684,439 241,956 241,2144 q 0,1328 490,1931 428,525 1153,525 541,0 886,-303 346,-303 414,-838 z M 888,1484 q 0,-290 123,-556 123,-265 345,-405 222,-139 466,-139 356,0 612,287 257,288 257,782 0,475 -254,748 -253,274 -637,274 -381,0 -647,-274 -265,-273 -265,-717 z"
       transform="scale(0.015625)" /><path
       id="ArialMT-32-4"
       d="M 3222,541 V 0 H 194 q -6,203 65,391 116,309 370,609 255,300 737,694 747,612 1009,970 263,358 263,677 0,334 -240,563 -239,230 -623,230 -406,0 -650,-244 -244,-243 -247,-674 l -578,59 q 59,647 446,986 388,339 1042,339 659,0 1043,-366 385,-365 385,-906 0,-275 -113,-541 Q 2991,2522 2730,2228 2469,1934 1863,1422 1356,997 1212,845 1069,694 975,541 Z"
       transform="scale(0.015625)" /><path
       id="ArialMT-38-8"
       d="m 1131,2484 q -350,129 -519,366 -168,238 -168,569 0,500 359,840 360,341 956,341 600,0 966,-349 366,-348 366,-848 0,-319 -168,-555 -167,-235 -507,-364 422,-137 642,-444 220,-306 220,-731 0,-587 -416,-987 Q 2447,-78 1769,-78 1091,-78 675,323 259,725 259,1325 q 0,447 227,748 227,302 645,411 z m -112,954 q 0,-325 209,-532 210,-206 544,-206 325,0 533,204 208,205 208,502 0,310 -215,521 -214,211 -532,211 -322,0 -535,-207 -212,-206 -212,-493 z M 838,1322 q 0,-241 114,-466 114,-225 339,-349 225,-123 484,-123 403,0 665,259 263,260 263,660 0,406 -270,672 -270,266 -677,266 -397,0 -658,-263 -260,-262 -260,-656 z"
       transform="scale(0.015625)" /><path
       id="ArialMT-43-7"
       d="m 3763,1606 606,-153 Q 4178,706 3683,314 3188,-78 2472,-78 1731,-78 1267,223 803,525 561,1097 319,1669 319,2325 q 0,716 273,1248 274,533 778,809 505,277 1111,277 688,0 1156,-350 469,-350 654,-984 l -597,-141 q -160,500 -463,728 -303,229 -762,229 -528,0 -883,-254 -355,-253 -499,-680 -143,-426 -143,-879 0,-584 170,-1020 170,-436 529,-652 360,-215 779,-215 509,0 862,293 354,294 479,872 z"
       transform="scale(0.015625)" /><path
       id="ArialMT-65-5"
       d="m 2694,1069 581,-72 Q 3138,488 2766,206 2394,-75 1816,-75 1088,-75 661,373 234,822 234,1631 q 0,838 431,1300 432,463 1119,463 666,0 1088,-453 422,-453 422,-1275 0,-50 -3,-150 H 816 q 31,-547 309,-838 278,-290 694,-290 309,0 528,162 219,163 347,519 z M 847,1978 h 1853 q -37,419 -212,628 -269,325 -697,325 -388,0 -652,-259 -264,-259 -292,-694 z"
       transform="scale(0.015625)" /><path
       id="ArialMT-6c-9"
       d="M 409,0 V 4581 H 972 V 0 Z"
       transform="scale(0.015625)" /><path
       id="ArialMT-2d-5"
       d="m 203,1375 v 566 h 1728 v -566 z"
       transform="scale(0.015625)" /><path
       id="ArialMT-63-3"
       d="m 2588,1216 553,-72 Q 3050,572 2676,248 2303,-75 1759,-75 1078,-75 664,370 250,816 250,1647 q 0,537 178,940 178,404 542,605 364,202 793,202 540,0 884,-274 344,-273 441,-776 l -547,-85 q -78,335 -277,503 -198,169 -480,169 -425,0 -691,-305 -265,-304 -265,-963 0,-669 256,-972 257,-303 669,-303 331,0 553,203 222,203 282,625 z"
       transform="scale(0.015625)" /><path
       id="ArialMT-20-2"
       transform="scale(0.015625)"
       d="" /><path
       id="ArialMT-67-7"
       d="m 319,-275 547,-81 q 34,-253 190,-369 210,-156 572,-156 391,0 603,156 213,156 288,437 44,172 40,722 Q 2191,0 1641,0 956,0 581,494 206,988 206,1678 q 0,475 172,876 172,402 498,621 327,219 768,219 587,0 969,-475 v 400 h 518 V 450 q 0,-775 -158,-1098 -157,-324 -500,-511 -342,-188 -842,-188 -593,0 -959,267 -366,267 -353,805 z m 465,1994 q 0,-653 259,-953 260,-300 651,-300 387,0 649,298 263,299 263,936 0,609 -270,918 -270,310 -652,310 -375,0 -638,-305 -262,-304 -262,-904 z"
       transform="scale(0.015625)" /><path
       id="ArialMT-61-3"
       d="M 2588,409 Q 2275,144 1986,34 1697,-75 1366,-75 819,-75 525,192 231,459 231,875 q 0,244 111,445 111,202 291,324 180,122 405,184 165,44 500,85 681,81 1003,193 3,116 3,147 0,344 -160,485 -215,190 -640,190 -397,0 -586,-139 -189,-139 -280,-492 l -550,75 q 75,353 247,570 172,217 497,334 325,118 753,118 425,0 690,-100 266,-100 391,-252 125,-151 175,-383 28,-143 28,-518 v -750 q 0,-785 36,-993 36,-207 143,-398 h -588 q -87,175 -112,409 z m -47,1257 q -307,-125 -919,-213 -347,-50 -491,-113 -143,-62 -222,-182 -78,-120 -78,-267 0,-225 170,-375 171,-150 499,-150 325,0 578,142 253,142 372,389 91,191 91,562 z"
       transform="scale(0.015625)" /><path
       id="ArialMT-70-9"
       d="m 422,-1272 v 4591 h 512 v -431 q 182,253 410,379 228,127 553,127 425,0 750,-219 325,-219 490,-618 166,-398 166,-873 0,-509 -183,-917 Q 2938,359 2589,142 2241,-75 1856,-75 1575,-75 1351,44 1128,163 984,344 v -1616 z m 509,2913 q 0,-641 259,-947 260,-306 629,-306 375,0 642,317 267,317 267,983 0,634 -261,949 -261,316 -623,316 -360,0 -637,-336 -276,-336 -276,-976 z"
       transform="scale(0.015625)" /><path
       id="ArialMT-3a-7"
       d="m 578,2678 v 641 h 641 V 2678 Z M 578,0 v 641 h 641 V 0 Z"
       transform="scale(0.015625)" /><path
       id="Cmmi10-70-7"
       d="m -159,-1241 q -60,0 -60,82 22,140 85,140 200,0 279,36 80,36 124,183 l 722,2881 q 47,119 47,307 0,275 -188,275 -200,0 -297,-240 -97,-239 -187,-604 0,-41 -53,-41 h -75 q -16,0 -35,23 -19,24 -19,43 69,278 133,471 64,194 200,353 136,160 339,160 219,0 384,-124 166,-123 213,-335 175,203 387,331 213,128 438,128 269,0 467,-144 199,-143 299,-376 100,-233 100,-502 0,-412 -211,-853 Q 2722,513 2361,220 2000,-72 1588,-72 1400,-72 1248,34 1097,141 1013,313 L 722,-825 q -16,-94 -19,-109 0,-85 422,-85 66,0 66,-81 -22,-84 -36,-112 -14,-29 -74,-29 z M 1594,97 q 222,0 412,183 191,183 310,411 87,172 163,420 77,248 133,529 57,282 57,448 0,146 -39,274 -39,129 -128,215 -89,86 -236,86 -235,0 -443,-168 -207,-167 -376,-414 v -22 L 1094,647 Q 1138,419 1263,258 1388,97 1594,97 Z"
       transform="scale(0.015625)" /><path
       id="m72ef26e254"
       d="M 0,0 H 3"
       style="stroke:#000000;stroke-width:0.8" /><path
       id="ArialMT-30-9"
       d="m 266,2259 q 0,813 167,1308 167,496 496,764 330,269 830,269 369,0 647,-149 278,-148 459,-428 182,-279 285,-681 103,-401 103,-1083 0,-806 -166,-1301 Q 2922,463 2592,192 2263,-78 1759,-78 1097,-78 719,397 266,969 266,2259 Z m 578,0 q 0,-1128 264,-1502 264,-373 651,-373 388,0 652,375 264,375 264,1500 0,1132 -264,1503 -264,372 -658,372 -387,0 -619,-328 Q 844,3388 844,2259 Z"
       transform="scale(0.015625)" /><path
       id="ArialMT-2e-5"
       d="m 581,0 v 641 h 641 V 0 Z"
       transform="scale(0.015625)" /><path
       id="ArialMT-35-3"
       d="m 266,1200 590,50 q 66,-431 305,-649 239,-217 577,-217 406,0 687,306 281,307 281,813 0,481 -270,759 -270,279 -708,279 -272,0 -491,-124 -218,-123 -343,-320 l -528,69 443,2353 H 3088 V 3981 H 1259 L 1013,2750 q 412,288 865,288 600,0 1012,-416 413,-416 413,-1069 Q 3303,931 2941,478 2500,-78 1738,-78 1113,-78 717,272 322,622 266,1200 Z"
       transform="scale(0.015625)" /><path
       id="ArialMT-6f-3"
       d="m 213,1659 q 0,922 512,1366 428,369 1044,369 684,0 1118,-449 435,-448 435,-1239 0,-640 -192,-1008 Q 2938,331 2570,128 2203,-75 1769,-75 1072,-75 642,372 213,819 213,1659 Z m 578,0 q 0,-637 278,-954 278,-317 700,-317 419,0 697,318 278,319 278,972 0,616 -280,933 -280,317 -695,317 -422,0 -700,-316 -278,-315 -278,-953 z"
       transform="scale(0.015625)" /><path
       id="ArialMT-6d-3"
       d="m 422,0 v 3319 h 503 v -466 q 156,244 415,392 260,149 591,149 369,0 605,-153 236,-153 333,-428 394,581 1025,581 494,0 759,-274 266,-273 266,-842 V 0 h -560 v 2091 q 0,337 -55,485 -54,149 -198,239 -143,91 -337,91 -350,0 -582,-233 -231,-232 -231,-745 V 0 h -562 v 2156 q 0,375 -138,562 -137,188 -450,188 -237,0 -439,-125 -201,-125 -292,-366 -91,-240 -91,-693 V 0 Z"
       transform="scale(0.015625)" /><path
       id="ArialMT-74-8"
       d="M 1650,503 1731,6 Q 1494,-44 1306,-44 1000,-44 831,53 663,150 594,308 525,466 525,972 V 2881 H 113 v 438 h 412 v 822 l 559,337 V 3319 h 566 V 2881 H 1084 V 941 q 0,-241 30,-310 30,-68 97,-109 67,-41 192,-41 94,0 247,22 z"
       transform="scale(0.015625)" /><path
       id="ArialMT-69-5"
       d="m 425,3934 v 647 H 988 V 3934 Z M 425,0 V 3319 H 988 V 0 Z"
       transform="scale(0.015625)" /><path
       id="ArialMT-6e-8"
       d="m 422,0 v 3319 h 506 v -472 q 366,547 1056,547 300,0 552,-108 252,-108 377,-283 125,-175 175,-415 31,-157 31,-547 V 0 h -563 v 2019 q 0,344 -66,514 -65,170 -232,271 -167,102 -392,102 -360,0 -621,-228 Q 984,2450 984,1813 V 0 Z"
       transform="scale(0.015625)" /><path
       id="Cmmi10-c1-9"
       d="M 1241,-1247 1528,-91 Q 1203,-91 922,61 641,213 470,484 300,756 300,1075 q 0,347 172,662 172,316 470,574 299,258 642,397 344,139 682,139 l 384,1556 q 13,38 50,38 h 78 q 25,0 40,-22 16,-22 16,-41 L 2450,2847 q 241,0 466,-88 225,-87 398,-245 174,-158 270,-372 97,-214 97,-458 0,-346 -172,-662 Q 3338,706 3047,453 2756,200 2398,54 2041,-91 1716,-91 l -294,-1184 q -13,-38 -53,-38 h -75 q -25,0 -39,24 -14,23 -14,42 z m 328,1325 653,2603 q -163,0 -341,-66 -178,-65 -336,-165 Q 1388,2350 1259,2222 1103,2066 984,1853 866,1641 805,1405 744,1169 744,941 744,700 847,503 950,306 1137,192 1325,78 1569,78 Z m 190,0 q 241,0 513,137 272,138 447,323 240,237 379,582 140,346 140,699 0,237 -104,435 -103,199 -291,313 -187,114 -430,114 z"
       transform="scale(0.015625)" /><path
       id="m44cb93bc80"
       d="M 1,0 H -1" /><path
       id="m7be57e2313"
       d="M 1,0 H -1" /><path
       id="m1f38384e51"
       d="M 1,0 H -1" /><path
       id="m260f30187b"
       d="M 1,0 H -1" /><path
       id="m8ca5b9a22d"
       d="M 1,0 H -1" /><path
       id="m01da9a86e0"
       d="M 0,2 C 0.530406,2 1.03916,1.789267 1.414214,1.414214 1.789267,1.03916 2,0.530406 2,0 2,-0.530406 1.789267,-1.03916 1.414214,-1.414214 1.03916,-1.789267 0.530406,-2 0,-2 -0.530406,-2 -1.03916,-1.789267 -1.414214,-1.414214 -1.789267,-1.03916 -2,-0.530406 -2,0 -2,0.530406 -1.789267,1.03916 -1.414214,1.414214 -1.03916,1.789267 -0.530406,2 0,2 Z" /><path
       id="m68be2b7acc"
       d="M 0,2 C 0.530406,2 1.03916,1.789267 1.414214,1.414214 1.789267,1.03916 2,0.530406 2,0 2,-0.530406 1.789267,-1.03916 1.414214,-1.414214 1.03916,-1.789267 0.530406,-2 0,-2 -0.530406,-2 -1.03916,-1.789267 -1.414214,-1.414214 -1.789267,-1.03916 -2,-0.530406 -2,0 -2,0.530406 -1.789267,1.03916 -1.414214,1.414214 -1.03916,1.789267 -0.530406,2 0,2 Z" /><path
       id="mce39e2e047"
       d="M 0,2 C 0.530406,2 1.03916,1.789267 1.414214,1.414214 1.789267,1.03916 2,0.530406 2,0 2,-0.530406 1.789267,-1.03916 1.414214,-1.414214 1.03916,-1.789267 0.530406,-2 0,-2 -0.530406,-2 -1.03916,-1.789267 -1.414214,-1.414214 -1.789267,-1.03916 -2,-0.530406 -2,0 -2,0.530406 -1.789267,1.03916 -1.414214,1.414214 -1.03916,1.789267 -0.530406,2 0,2 Z" /><path
       id="m8a595872e0"
       d="M 0,2 C 0.530406,2 1.03916,1.789267 1.414214,1.414214 1.789267,1.03916 2,0.530406 2,0 2,-0.530406 1.789267,-1.03916 1.414214,-1.414214 1.03916,-1.789267 0.530406,-2 0,-2 -0.530406,-2 -1.03916,-1.789267 -1.414214,-1.414214 -1.789267,-1.03916 -2,-0.530406 -2,0 -2,0.530406 -1.789267,1.03916 -1.414214,1.414214 -1.03916,1.789267 -0.530406,2 0,2 Z" /><path
       id="mbf1c303b5c"
       d="M 0,2 C 0.530406,2 1.03916,1.789267 1.414214,1.414214 1.789267,1.03916 2,0.530406 2,0 2,-0.530406 1.789267,-1.03916 1.414214,-1.414214 1.03916,-1.789267 0.530406,-2 0,-2 -0.530406,-2 -1.03916,-1.789267 -1.414214,-1.414214 -1.789267,-1.03916 -2,-0.530406 -2,0 -2,0.530406 -1.789267,1.03916 -1.414214,1.414214 -1.03916,1.789267 -0.530406,2 0,2 Z" /><path
       id="ArialMT-4d"
       d="m 475,0 v 4581 h 913 L 2472,1338 q 150,-454 219,-679 78,250 243,735 l 1097,3187 h 816 V 0 H 4263 V 3834 L 2931,0 H 2384 L 1059,3900 V 0 Z"
       transform="scale(0.015625)" /><path
       id="ArialMT-72"
       d="m 416,0 v 3319 h 506 v -503 q 194,353 358,465 164,113 361,113 284,0 578,-181 l -194,-522 q -206,122 -412,122 -185,0 -332,-111 -147,-111 -209,-308 -94,-300 -94,-656 V 0 Z"
       transform="scale(0.015625)" /><path
       id="ArialMT-78"
       d="M 47,0 1259,1725 138,3319 h 703 l 509,-778 q 144,-222 231,-372 138,206 253,365 l 560,785 h 672 L 1919,1756 3153,0 H 2463 L 1781,1031 1600,1309 728,0 Z"
       transform="scale(0.015625)" /><path
       id="ArialMT-64"
       d="M 2575,0 V 419 Q 2259,-75 1647,-75 1250,-75 917,144 584,363 401,755 q -182,392 -182,901 0,497 165,902 166,405 497,620 332,216 741,216 300,0 534,-127 235,-126 382,-329 v 1643 h 559 V 0 Z M 797,1656 q 0,-637 268,-953 269,-315 635,-315 369,0 626,301 258,302 258,920 0,682 -263,1000 -262,319 -646,319 -375,0 -627,-306 -251,-306 -251,-966 z"
       transform="scale(0.015625)" /><path
       id="Cmmi10-7a"
       d="m 313,-72 q -50,0 -50,59 0,32 12,44 172,297 414,567 242,271 550,547 308,277 619,555 311,278 505,494 h -25 q -141,0 -413,90 -272,91 -428,91 -169,0 -329,-74 -159,-73 -202,-226 -10,-47 -50,-47 h -78 q -50,0 -50,66 v 19 q 50,187 164,349 114,163 281,264 167,102 348,102 128,0 212,-58 85,-57 197,-179 113,-122 183,-175 71,-53 177,-53 141,0 252,128 111,128 220,318 19,19 47,19 h 75 q 22,0 36,-16 14,-15 14,-40 0,-22 -13,-41 -172,-297 -402,-555 -229,-257 -600,-590 -370,-333 -625,-563 -254,-229 -476,-473 50,13 135,13 156,0 426,-90 270,-89 417,-89 160,0 322,69 163,69 281,194 119,125 160,287 15,44 50,44 h 78 q 25,0 40,-20 16,-20 16,-42 0,-7 -6,-19 Q 2738,653 2591,433 2444,213 2230,70 2016,-72 1772,-72 q -122,0 -207,57 -84,56 -198,179 -114,124 -186,178 -72,55 -175,55 -318,0 -572,-447 -21,-22 -43,-22 z"
       transform="scale(0.015625)" /><path
       id="Cmr10-33"
       d="M 609,494 Q 759,275 1012,169 1266,63 1556,63 q 372,0 528,317 157,317 157,720 0,181 -33,362 -33,182 -111,338 -78,156 -214,250 -136,94 -333,94 h -425 q -56,0 -56,59 v 56 q 0,50 56,50 l 353,29 q 225,0 373,168 149,169 218,411 69,242 69,461 0,306 -144,503 -144,197 -438,197 -243,0 -465,-92 -222,-92 -353,-280 12,3 21,5 10,2 22,2 144,0 241,-100 97,-100 97,-241 0,-138 -97,-238 -97,-100 -241,-100 -140,0 -240,100 -100,100 -100,238 0,275 165,478 166,203 427,308 261,105 523,105 194,0 409,-58 216,-58 391,-166 175,-108 286,-277 111,-168 111,-384 0,-269 -120,-497 -120,-228 -330,-394 -209,-165 -459,-246 278,-53 528,-210 250,-156 401,-400 152,-243 152,-525 0,-353 -194,-639 Q 2538,181 2222,20 1906,-141 1556,-141 1256,-141 954,-26 653,88 461,316 269,544 269,863 q 0,159 106,265 106,106 266,106 103,0 189,-48 86,-48 134,-136 49,-87 49,-187 Q 1013,706 903,600 794,494 641,494 Z"
       transform="scale(0.015625)" /><path
       id="Cmmi10-3a"
       d="m 538,353 q 0,144 106,247 106,103 247,103 87,0 171,-47 85,-47 132,-131 47,-84 47,-172 0,-140 -104,-247 Q 1034,0 891,0 750,0 644,106 538,213 538,353 Z"
       transform="scale(0.015625)" /><path
       id="Cmr10-35"
       d="m 556,728 q 66,-187 202,-341 136,-153 322,-239 186,-85 386,-85 462,0 637,359 175,359 175,872 0,222 -8,373 -7,152 -42,292 -59,225 -208,394 -148,169 -364,169 -215,0 -370,-66 -155,-65 -252,-153 -96,-87 -171,-184 -75,-97 -94,-103 h -72 q -16,0 -40,20 -23,20 -23,39 v 2138 q 0,15 20,32 21,18 43,18 h 19 q 431,-207 915,-207 475,0 916,207 h 19 q 22,0 40,-16 19,-16 19,-34 v -60 q 0,-31 -12,-31 -219,-291 -549,-454 -330,-162 -683,-162 -256,0 -525,72 V 2369 q 213,172 380,245 167,74 427,74 353,0 632,-204 280,-203 430,-530 150,-326 150,-666 0,-385 -189,-713 Q 2497,247 2172,53 1847,-141 1466,-141 1150,-141 886,21 622,184 470,459 319,734 319,1044 q 0,144 93,234 94,91 235,91 141,0 236,-93 95,-92 95,-232 0,-138 -95,-233 -95,-95 -236,-95 -22,0 -50,4 -28,5 -41,8 z"
       transform="scale(0.015625)" /><path
       id="Cmr10-37"
       d="m 1113,166 q 0,356 62,696 63,341 183,674 120,333 290,653 171,320 374,602 l 584,812 H 1875 Q 738,3603 703,3572 619,3469 544,2981 H 359 l 210,1344 h 187 v -19 q 0,-115 391,-150 391,-34 766,-34 h 1190 v -166 q 0,-6 -2,-9 -1,-3 -4,-9 L 2216,2700 q -325,-481 -407,-1069 -81,-587 -81,-1465 0,-125 -91,-216 -90,-91 -215,-91 -128,0 -219,91 -90,91 -90,216 z"
       transform="scale(0.015625)" /><path
       id="m4a151692e6"
       d="M 0,2 C 0.530406,2 1.03916,1.789267 1.414214,1.414214 1.789267,1.03916 2,0.530406 2,0 2,-0.530406 1.789267,-1.03916 1.414214,-1.414214 1.03916,-1.789267 0.530406,-2 0,-2 -0.530406,-2 -1.03916,-1.789267 -1.414214,-1.414214 -1.789267,-1.03916 -2,-0.530406 -2,0 -2,0.530406 -1.789267,1.03916 -1.414214,1.414214 -1.03916,1.789267 -0.530406,2 0,2 Z" /><path
       id="Cmr10-39"
       d="M 722,269 Q 897,63 1331,63 q 244,0 455,165 211,166 327,406 134,272 171,580 38,308 38,764 -109,-259 -314,-425 -205,-165 -470,-165 -372,0 -665,201 -292,202 -448,531 -156,330 -156,702 0,384 175,717 175,333 484,528 310,196 703,196 388,0 649,-211 261,-211 398,-544 138,-333 192,-705 55,-372 55,-734 0,-494 -181,-1008 -181,-514 -542,-858 -361,-344 -871,-344 -378,0 -641,178 -262,179 -262,538 0,131 89,220 89,89 221,89 128,0 217,-89 89,-89 89,-220 0,-125 -91,-216 -90,-90 -215,-90 z m 841,1287 q 262,0 429,176 167,177 242,439 75,263 75,523 v 122 25 q 0,481 -141,859 -140,378 -537,378 -253,0 -411,-111 -157,-111 -232,-295 -75,-184 -96,-394 -20,-209 -20,-456 0,-363 34,-619 35,-256 188,-452 153,-195 469,-195 z"
       transform="scale(0.015625)" /><path
       id="Cmr10-34"
       d="m 178,1056 v 225 l 1978,2950 q 22,32 66,32 h 94 q 72,0 72,-72 V 1281 h 628 V 1056 H 2388 V 428 q 0,-131 187,-167 188,-36 434,-36 V 0 H 1247 v 225 q 247,0 434,36 188,36 188,167 v 628 z m 213,225 h 1515 v 2266 z"
       transform="scale(0.015625)" /><path
       id="Cmr10-30"
       d="m 1600,-141 q -784,0 -1067,645 -283,646 -283,1537 0,556 101,1046 102,491 403,833 302,343 846,343 422,0 690,-207 269,-206 410,-533 141,-326 192,-700 52,-373 52,-782 0,-550 -102,-1030 -101,-480 -398,-816 -297,-336 -844,-336 z m 0,166 q 356,0 531,365 175,366 216,810 41,444 41,944 0,481 -41,887 -41,407 -215,736 -173,330 -532,330 -362,0 -537,-332 -175,-331 -216,-736 -41,-404 -41,-885 0,-356 17,-672 18,-316 93,-652 75,-336 242,-566 167,-229 442,-229 z"
       transform="scale(0.015625)" /><path
       id="Cmr10-32"
       d="m 319,0 v 172 q 0,16 12,34 l 994,1100 q 225,244 365,409 141,166 278,382 138,216 218,439 80,223 80,473 0,263 -97,502 -97,239 -289,383 -192,144 -464,144 -278,0 -500,-168 -222,-167 -313,-432 25,6 69,6 144,0 245,-97 102,-97 102,-250 0,-147 -102,-249 -101,-101 -245,-101 -150,0 -252,104 -101,105 -101,246 0,241 90,451 91,211 261,375 171,165 385,252 214,88 454,88 366,0 681,-155 316,-155 500,-438 185,-282 185,-661 0,-278 -122,-528 -122,-250 -313,-455 -190,-204 -487,-464 -297,-259 -390,-346 L 838,519 h 615 q 453,0 758,7 305,8 323,24 75,81 154,591 h 187 L 2694,0 Z"
       transform="scale(0.015625)" /><clipPath
       id="pc252019cc1"><rect
         x="35.220001"
         y="10.063125"
         width="129.94521"
         height="97.80822"
         id="rect1403" /></clipPath><style
       type="text/css"
       id="style1-42">*{stroke-linejoin: round; stroke-linecap: butt}</style><path
       id="me2203f6053"
       d="m 43.48279,-144.9738 v 0.0484 l 1.027235,38.66367 1.027235,16.36934 1.027235,11.685768 1.027235,8.309545 1.027234,6.435646 1.027235,5.108096 1.027235,3.899391 1.027235,2.964771 1.027235,2.117549 1.027234,1.464145 1.027235,0.973459 1.027235,0.653104 1.027235,0.380701 1.027235,0.247893 1.027235,0.144357 1.027234,0.09098 1.027235,0.04866 1.027235,0.04518 1.027235,0.02335 1.027235,0.03661 1.027235,-0.0063 1.027234,-0.005 1.027235,0.02472 1.027235,-0.0106 1.027235,3.36e-4 1.027235,-0.0054 1.027235,-0.0066 1.027234,0.01383 1.027235,0.0116 1.027235,-0.0026 1.027235,8.61e-4 1.027235,-0.0037 1.027234,-0.0032 1.027235,0.01065 1.027235,0.0035 1.027235,-0.02025 1.027235,0.02284 1.027235,-0.02127 1.027234,0.01313 1.027235,-0.0062 1.027235,0.0029 1.027235,-0.005 1.027235,0.0193 1.027235,-0.01552 1.027234,0.0023 1.027235,-0.0079 1.027235,-0.0017 1.027235,-0.0034 1.027235,-0.0013 1.027235,0.01102 1.027234,-0.01049 1.027235,0.01444 1.027235,-0.0061 1.027235,-2.55e-4 1.027235,-0.01385 1.027234,0.01084 1.02723,0.01702 1.02724,-0.0093 1.02724,-0.0013 1.02723,-0.0052 1.02724,0.01184 1.02723,-0.006 1.02723,-2.35e-4 1.02724,0.0032 1.02723,-0.0071 1.02724,0.0031 1.02723,0.0027 1.02724,-6.49e-4 1.02723,-10e-4 1.02724,0.0079 1.02723,-0.01471 1.02724,-0.0017 1.02723,0.0074 1.02724,-0.0055 1.02723,-0.006 1.02724,0.0083 1.02723,-3.36e-4 1.02724,0.0029 1.02723,0.0066 1.02724,-0.0031 1.02723,0.0012 1.02724,-0.01494 1.02723,0.0015 1.02724,-0.0041 1.02723,0.0077 1.02723,0.01411 1.02724,-0.0078 1.02723,-0.004 1.02724,0.003 1.02723,-0.007 1.02724,0.0056 1.02723,0.0031 1.02724,-0.0033 1.02723,-7.95e-4 1.02724,0.0021 1.02723,-1.62e-4 1.02724,-0.0029 1.02723,-0.0033 1.02724,9.41e-4 1.02723,0.0042 v -1.916887 0 l -1.02723,-5.52e-4 -1.02724,-0.0089 -1.02723,-0.0019 -1.02724,0.01221 -1.02723,-0.0049 -1.02724,-0.01405 -1.02723,0.01713 -1.02724,-0.0024 -1.02723,0.0035 -1.02724,-0.004 -1.02723,8.26e-4 -1.02724,0.002 -1.02723,0.0023 -1.02724,-0.0087 -1.02723,0.0102 -1.02723,0.0071 -1.02724,-0.008 -1.02723,-0.0036 -1.02724,-0.0091 -1.02723,-0.006 -1.02724,0.0099 -1.02723,-0.0029 -1.02724,0.01277 -1.02723,0.0035 -1.02724,-9.48e-4 -1.02723,-0.0032 -1.02724,0.0039 -1.02723,-0.01146 -1.02724,-0.0052 -1.02723,7.97e-4 -1.02724,0.0052 -1.02723,0.0032 -1.02724,-0.01111 -1.02723,0.01127 -1.02724,0.0066 -1.02723,-0.0171 -1.02724,0.0026 -1.02723,0.01208 -1.02723,-0.0071 -1.02724,7.06e-4 -1.02723,-0.0048 -1.02724,-1.82e-4 -1.02724,-0.0035 -1.02723,0.01361 -1.027234,-0.0083 -1.027235,-0.0057 -1.027235,-0.002 -1.027235,0.0051 -1.027235,5.52e-4 -1.027234,0.0013 -1.027235,0.01653 -1.027235,-0.0128 -1.027235,0.01262 -1.027235,-0.009 -1.027235,-0.0036 -1.027234,0.0027 -1.027235,0.0027 -1.027235,-0.0025 -1.027235,-0.0018 -1.027235,-0.0021 -1.027235,0.0015 -1.027234,0.0073 -1.027235,9.82e-4 -1.027235,-0.01098 -1.027235,-6.81e-4 -1.027235,-0.0068 -1.027235,0.0086 -1.027234,0.0074 -1.027235,-0.01126 -1.027235,0.0044 -1.027235,-9.22e-4 -1.027235,-0.01065 -1.027234,0.01382 -1.027235,4.67e-4 -1.027235,-0.0138 -1.027235,0.0039 -1.027235,-6.81e-4 -1.027235,0.0021 -1.027234,-0.01735 -1.027235,0.0052 -1.027235,-0.01234 -1.027235,-0.01345 -1.027235,-0.02228 -1.027235,-0.05076 -1.027234,-0.07217 -1.027235,-0.131816 -1.027235,-0.206302 -1.027235,-0.354428 -1.027235,-0.554351 -1.027235,-0.88648 -1.027234,-1.322782 -1.027235,-1.939487 -1.027235,-2.764487 -1.027235,-3.689778 -1.027235,-4.850784 -1.027234,-6.279843 -1.027235,-8.296257 -1.027235,-11.788487 -1.027235,-16.341876 z"
       style="stroke:#941100;stroke-opacity:0.2" /><path
       id="ma377cc44ba"
       d="m 43.48279,-145.05752 v 0.0905 l 1.027235,31.18475 1.027235,14.510983 1.027235,10.666611 1.027235,8.517428 1.027234,6.745949 1.027235,4.69293 1.027235,4.113649 1.027235,3.433934 1.027235,2.761972 1.027234,2.540083 1.027235,1.985334 1.027235,1.622502 1.027235,1.298623 1.027235,1.223486 1.027235,0.928279 1.027234,0.684489 1.027235,0.512281 1.027235,0.38437 1.027235,0.256722 1.027235,0.19426 1.027235,0.159497 1.027234,0.118697 1.027235,0.07683 1.027235,0.08658 1.027235,0.02862 1.027235,0.04588 1.027235,0.03755 1.027234,0.01214 1.027235,0.0077 1.027235,0.01773 1.027235,-0.0046 1.027235,0.02516 1.027234,-4.77e-4 1.027235,-8.4e-5 1.027235,0.006 1.027235,0.0055 1.027235,0.01869 1.027235,-0.0055 1.027234,0.0231 1.027235,-0.01282 1.027235,0.0059 1.027235,0.0074 1.027235,-4.7e-5 1.027235,0.0022 1.027234,-0.0021 1.027235,0.0034 1.027235,-0.0021 1.027235,0.0022 1.027235,0.01 1.027235,-0.0042 1.027234,-0.0031 1.027235,-5.19e-4 1.027235,0.0016 1.027235,0.0068 1.027235,-3.45e-4 1.027234,-0.0067 1.02723,0.0069 1.02724,-0.0099 1.02724,0.01796 1.02723,-2.7e-4 1.02724,-0.0089 1.02723,2.96e-4 1.02723,-0.01141 1.02724,9.47e-4 1.02723,0.0017 1.02724,3.37e-4 1.02723,0.0065 1.02724,0.0052 1.02723,-0.01548 1.02724,-0.01366 1.02723,-6.87e-4 1.02724,0.0251 1.02723,-0.0034 1.02724,-0.01154 1.02723,0.01628 1.02724,-0.03014 1.02723,0.01854 1.02724,0.0092 1.02723,0.0033 1.02724,-0.0019 1.02723,-0.01009 1.02724,-0.0102 1.02723,0.01006 1.02724,-0.02291 1.02723,0.02201 1.02723,-0.0011 1.02724,-0.0022 1.02723,-0.0084 1.02724,-9.96e-4 1.02723,-0.0032 1.02724,0.0184 1.02723,-0.01407 1.02724,0.01522 1.02723,-0.01144 1.02724,0.007 1.02723,-0.01132 1.02724,0.008 1.02723,-0.01038 1.02724,0.01301 1.02723,-0.0057 v -3.878523 0 l -1.02723,0.0097 -1.02724,0.01293 -1.02723,-0.0033 -1.02724,0.0022 -1.02723,-0.0047 -1.02724,-0.0047 -1.02723,-0.02397 -1.02724,0.02918 -1.02723,-0.0021 -1.02724,0.0063 -1.02723,0.0036 -1.02724,-0.01 -1.02723,0.01261 -1.02724,0.0031 -1.02723,-0.01129 -1.02723,-0.02571 -1.02724,0.0049 -1.02723,0.0077 -1.02724,-0.0025 -1.02723,0.02629 -1.02724,-0.01487 -1.02723,-0.0067 -1.02724,0.01473 -1.02723,-0.01522 -1.02724,-0.0035 -1.02723,0.01582 -1.02724,-0.01038 -1.02723,0.02562 -1.02724,-0.02509 -1.02723,0.01486 -1.02724,-0.0089 -1.02723,-0.01877 -1.02724,0.01646 -1.02723,-0.0044 -1.02724,0.0037 -1.02723,-0.0011 -1.02724,9.35e-4 -1.02723,0.01227 -1.02723,-0.01853 -1.02724,0.01701 -1.02723,3.02e-4 -1.02724,-0.01682 -1.02724,0.007 -1.02723,0.0073 -1.027234,-0.01106 -1.027235,0.01987 -1.027235,-0.02087 -1.027235,0.0015 -1.027235,0.01224 -1.027234,0.0028 -1.027235,-0.01309 -1.027235,0.007 -1.027235,0.01127 -1.027235,-0.03147 -1.027235,0.01235 -1.027234,0.0013 -1.027235,-0.01041 -1.027235,0.02673 -1.027235,-0.02551 -1.027235,0.02481 -1.027235,0.0019 -1.027234,-0.0066 -1.027235,0.02014 -1.027235,-0.01787 -1.027235,0.0113 -1.027235,-0.0015 -1.027235,-0.02302 -1.027234,-0.0067 -1.027235,0.02155 -1.027235,0.01222 -1.027235,-0.01793 -1.027235,-0.01745 -1.027234,0.0034 -1.027235,-0.0314 -1.027235,-0.0021 -1.027235,-0.0357 -1.027235,-0.03679 -1.027235,-0.02195 -1.027234,-0.03867 -1.027235,-0.08938 -1.027235,-0.11017 -1.027235,-0.145951 -1.027235,-0.256138 -1.027235,-0.273035 -1.027234,-0.451564 -1.027235,-0.584939 -1.027235,-0.813161 -1.027235,-1.064018 -1.027235,-1.368279 -1.027235,-1.762005 -1.027234,-2.239418 -1.027235,-2.799594 -1.027235,-3.326942 -1.027235,-3.995756 -1.027235,-4.597003 -1.027234,-6.761118 -1.027235,-8.435906 -1.027235,-10.616254 -1.027235,-14.560177 z"
       style="stroke:#ff3300;stroke-opacity:0.2" /><path
       id="m21ce528643"
       d="m 43.48279,-145.07281 v 0.0653 l 1.027235,27.64031 1.027235,13.51198 1.027235,9.75622 1.027235,7.888099 1.027234,6.589732 1.027235,5.386707 1.027235,3.896495 1.027235,3.488252 1.027235,3.029261 1.027234,2.544527 1.027235,2.159744 1.027235,1.836606 1.027235,1.530882 1.027235,1.30061 1.027235,1.020236 1.027234,0.849583 1.027235,0.680534 1.027235,0.561927 1.027235,0.454918 1.027235,0.326329 1.027235,0.286243 1.027234,0.197838 1.027235,0.172181 1.027235,0.132618 1.027235,0.09776 1.027235,0.06346 1.027235,0.07615 1.027234,0.04245 1.027235,0.03957 1.027235,0.04458 1.027235,0.03157 1.027235,0.04522 1.027234,0.01046 1.027235,0.02546 1.027235,0.02003 1.027235,0.0145 1.027235,0.0078 1.027235,0.01221 1.027234,0.0252 1.027235,0.01152 1.027235,0.02294 1.027235,-0.0087 1.027235,0.02374 1.027235,0.01267 1.027234,0.02203 1.027235,0.01505 1.027235,0.0056 1.027235,0.02167 1.027235,-0.0074 1.027235,0.0034 1.027234,0.0041 1.027235,-0.0096 1.027235,0.0083 1.027235,0.0056 1.027235,-0.005 1.027234,0.01989 1.02723,-0.01583 1.02724,0.0034 1.02724,0.0047 1.02723,-0.002 1.02724,-0.01175 1.02723,0.0047 1.02723,-0.0015 1.02724,0.0069 1.02723,-0.0074 1.02724,-0.0035 1.02723,0.001 1.02724,0.02281 1.02723,-0.01736 1.02724,0.01604 1.02723,-0.0039 1.02724,-0.01252 1.02723,0.0048 1.02724,0.0064 1.02723,0.02063 1.02724,-0.0096 1.02723,-0.0084 1.02724,0.0059 1.02723,-0.0088 1.02724,0.0066 1.02723,-0.0038 1.02724,0.01445 1.02723,-0.0028 1.02724,-0.01018 1.02723,-3.46e-4 1.02723,0.0095 1.02724,0.0035 1.02723,-0.0052 1.02724,-0.004 1.02723,0.0042 1.02724,0.01109 1.02723,0.0066 1.02724,-0.0037 1.02723,-0.01385 1.02724,0.02142 1.02723,-0.0039 1.02724,-0.0018 1.02723,-0.0065 1.02724,-0.01073 1.02723,0.0013 v -3.938115 0 l -1.02723,-0.01529 -1.02724,0.01482 -1.02723,-0.0081 -1.02724,0.0062 -1.02723,-9e-5 -1.02724,-0.01656 -1.02723,0.01622 -1.02724,-0.0167 -1.02723,0.0061 -1.02724,0.0071 -1.02723,-0.0034 -1.02724,-0.005 -1.02723,0.0041 -1.02724,-0.0032 -1.02723,8.55e-4 -1.02723,0.0051 -1.02724,-0.01516 -1.02723,0.0063 -1.02724,0.0062 -1.02723,0.0052 -1.02724,-0.01132 -1.02723,-0.0067 -1.02724,9.42e-4 -1.02723,0.0059 -1.02724,-0.0048 -1.02723,-0.0047 -1.02724,0.0037 -1.02723,-0.0082 -1.02724,0.01492 -1.02723,-0.0058 -1.02724,6.97e-4 -1.02723,-0.0015 -1.02724,0.0037 -1.02723,4.08e-4 -1.02724,-0.0017 -1.02723,8.98e-4 -1.02724,0.0044 -1.02723,-0.0051 -1.02723,-0.0072 -1.02724,0.0051 -1.02723,0.0082 -1.02724,-0.0033 -1.02724,0.0051 -1.02723,0.0046 -1.027234,-0.0074 -1.027235,0.0016 -1.027235,0.0058 -1.027235,-0.01291 -1.027235,0.01542 -1.027234,-0.01046 -1.027235,-0.0031 -1.027235,0.0048 -1.027235,-0.01364 -1.027235,9.64e-4 -1.027235,0.0022 -1.027234,0.0028 -1.027235,0.0051 -1.027235,-0.0099 -1.027235,0.0016 -1.027235,0.0014 -1.027235,0.0018 -1.027234,-0.01182 -1.027235,-0.01028 -1.027235,-0.0089 -1.027235,-0.006 -1.027235,-0.0055 -1.027235,-0.01276 -1.027234,-0.0077 -1.027235,-0.0086 -1.027235,-0.01878 -1.027235,-0.02202 -1.027235,-0.02925 -1.027234,-0.009 -1.027235,-0.04326 -1.027235,-0.05486 -1.027235,-0.0534 -1.027235,-0.08176 -1.027235,-0.107592 -1.027234,-0.132009 -1.027235,-0.187962 -1.027235,-0.235364 -1.027235,-0.299761 -1.027235,-0.399091 -1.027235,-0.516394 -1.027234,-0.647048 -1.027235,-0.852713 -1.027235,-1.097008 -1.027235,-1.322807 -1.027235,-1.632891 -1.027235,-1.949723 -1.027234,-2.364251 -1.027235,-2.804768 -1.027235,-3.25576 -1.027235,-4.062231 -1.027235,-5.457465 -1.027234,-6.629313 -1.027235,-7.837967 -1.027235,-9.879097 -1.027235,-13.37472 z"
       style="stroke:#ff8225;stroke-opacity:0.2" /><path
       id="mfd48d9f30d"
       d="m 43.48279,-145.12027 v 0.12212 l 1.027235,20.23842 1.027235,10.44327 1.027235,7.79553 1.027235,6.24497 1.027234,5.276813 1.027235,4.598806 1.027235,4.047379 1.027235,3.572234 1.027235,3.172677 1.027234,2.757346 1.027235,2.398946 1.027235,2.07175 1.027235,1.582917 1.027235,1.387549 1.027235,1.238397 1.027234,1.134118 1.027235,0.974145 1.027235,0.896555 1.027235,0.807273 1.027235,0.715516 1.027235,0.626377 1.027234,0.538028 1.027235,0.481174 1.027235,0.420203 1.027235,0.358112 1.027235,0.312125 1.027235,0.265882 1.027234,0.224016 1.027235,0.220696 1.027235,0.148429 1.027235,0.156012 1.027235,0.111487 1.027234,0.115959 1.027235,0.07711 1.027235,0.100029 1.027235,0.07265 1.027235,0.0551 1.027235,0.04397 1.027234,0.05298 1.027235,0.03898 1.027235,0.03302 1.027235,0.03057 1.027235,0.01866 1.027235,0.02411 1.027234,0.01109 1.027235,0.0605 1.027235,0.01919 1.027235,0.01892 1.027235,0.03383 1.027235,0.02499 1.027234,0.01893 1.027235,6.6e-4 1.027235,0.015 1.027235,-0.0051 1.027235,0.0089 1.027234,0.01737 1.02723,-0.0072 1.02724,0.01389 1.02724,0.01891 1.02723,0.01139 1.02724,-0.0075 1.02723,-8.9e-5 1.02723,5.48e-4 1.02724,-0.0064 1.02723,0.0012 1.02724,-0.0019 1.02723,0.0054 1.02724,-0.0029 1.02723,0.0046 1.02724,0.0073 1.02723,-0.02158 1.02724,0.03557 1.02723,0.003 1.02724,0.0083 1.02723,0.0051 1.02724,0.0144 1.02723,0.0069 1.02724,0.0045 1.02723,0.0057 1.02724,0.01778 1.02723,-0.0082 1.02724,0.01626 1.02723,0.0056 1.02724,0.0045 1.02723,0.01484 1.02723,-0.0018 1.02724,-0.0043 1.02723,0.01565 1.02724,-0.0052 1.02723,0.01614 1.02724,0.0095 1.02723,-0.01003 1.02724,-0.01194 1.02723,-2.88e-4 1.02724,0.0397 1.02723,-0.0042 1.02724,-0.01456 1.02723,0.0057 1.02724,0.0072 1.02723,-0.008 v -2.733728 0 l -1.02723,0.0095 -1.02724,-0.01067 -1.02723,-0.0037 -1.02724,6.39e-4 -1.02723,0.0026 -1.02724,-0.0065 -1.02723,0.0059 -1.02724,0.0023 -1.02723,-0.0015 -1.02724,-0.0049 -1.02723,0.01475 -1.02724,-0.0149 -1.02723,0.0044 -1.02724,0.0013 -1.02723,0.0023 -1.02723,-0.01768 -1.02724,0.01525 -1.02723,-0.02098 -1.02724,0.02265 -1.02723,-0.02278 -1.02724,0.0056 -1.02723,8.06e-4 -1.02724,0.0059 -1.02723,-0.0074 -1.02724,-0.0011 -1.02723,0.0081 -1.02724,0.0079 -1.02723,0.0023 -1.02724,0.007 -1.02723,0.0098 -1.02724,-0.0045 -1.02723,0.0076 -1.02724,0.01159 -1.02723,5.35e-4 -1.02724,-0.0024 -1.02723,-0.0085 -1.02724,4.74e-4 -1.02723,0.01087 -1.02723,-0.0065 -1.02724,0.01069 -1.02723,-0.002 -1.02724,0.01666 -1.02724,-0.02446 -1.02723,8.07e-4 -1.027234,0.01453 -1.027235,-0.0021 -1.027235,0.0076 -1.027235,0.01523 -1.027235,-0.01 -1.027234,0.01365 -1.027235,-0.0097 -1.027235,-0.01997 -1.027235,-0.0097 -1.027235,-0.04514 -1.027235,0.0025 -1.027234,-0.02179 -1.027235,-0.04713 -1.027235,-0.02792 -1.027235,-0.04285 -1.027235,-0.02091 -1.027235,-0.01177 -1.027234,-0.02871 -1.027235,-0.0289 -1.027235,-0.04898 -1.027235,-0.05018 -1.027235,-0.03583 -1.027235,-0.05915 -1.027234,-0.08584 -1.027235,-0.06982 -1.027235,-0.108476 -1.027235,-0.123065 -1.027235,-0.128451 -1.027234,-0.184357 -1.027235,-0.214644 -1.027235,-0.239133 -1.027235,-0.310759 -1.027235,-0.333169 -1.027235,-0.393751 -1.027234,-0.478728 -1.027235,-0.562218 -1.027235,-0.639321 -1.027235,-0.702826 -1.027235,-0.791614 -1.027235,-0.999209 -1.027234,-1.108151 -1.027235,-1.300331 -1.027235,-1.441936 -1.027235,-1.749812 -1.027235,-2.072823 -1.027235,-2.419456 -1.027234,-2.787607 -1.027235,-3.257218 -1.027235,-3.638869 -1.027235,-4.154492 -1.027235,-4.730629 -1.027234,-5.395389 -1.027235,-6.41183 -1.027235,-7.695 -1.027235,-10.04013 z"
       style="stroke:#4d7fb0;stroke-opacity:0.2" /><path
       id="m2eac518ddc"
       d="m 43.48279,-145.05277 v 0.0475 l 1.027235,5.47892 1.027235,2.927 1.027235,2.11342 1.027235,1.76137 1.027234,1.51128 1.027235,1.34629 1.027235,1.21969 1.027235,1.13421 1.027235,1.07633 1.027234,1.00372 1.027235,0.95865 1.027235,0.89765 1.027235,0.88019 1.027235,0.83616 1.027235,0.80179 1.027234,0.79072 1.027235,0.74735 1.027235,0.72469 1.027235,0.68634 1.027235,0.67079 1.027235,0.63357 1.027234,0.62531 1.027235,0.58598 1.027235,0.57308 1.027235,0.54708 1.027235,0.52282 1.027235,0.51233 1.027234,0.51039 1.027235,0.48678 1.027235,0.45597 1.027235,0.45441 1.027235,0.44225 1.027234,0.40479 1.027235,0.41158 1.027235,0.38834 1.027235,0.38293 1.027235,0.36985 1.027235,0.3547 1.027234,0.346 1.027235,0.31105 1.027235,0.32965 1.027235,0.29585 1.027235,0.30337 1.027235,0.29324 1.027234,0.26907 1.027235,0.27418 1.027235,0.24345 1.027235,0.26193 1.027235,0.23924 1.027235,0.2367 1.027234,0.21899 1.027235,0.20934 1.027235,0.20138 1.027235,0.20864 1.027235,0.20439 1.027234,0.18305 1.02723,0.18912 1.02724,0.16705 1.02724,0.17052 1.02723,0.17626 1.02724,0.15969 1.02723,0.14456 1.02723,0.15145 1.02724,0.13593 1.02723,0.15098 1.02724,0.13601 1.02723,0.1447 1.02724,0.11679 1.02723,0.13668 1.02724,0.11862 1.02723,0.1049 1.02724,0.12064 1.02723,0.10048 1.02724,0.10607 1.02723,0.0954 1.02724,0.10624 1.02723,0.0787 1.02724,0.0951 1.02723,0.0846 1.02724,0.0836 1.02723,0.0825 1.02724,0.0701 1.02723,0.0709 1.02724,0.0832 1.02723,0.0647 1.02723,0.0671 1.02724,0.0711 1.02723,0.0624 1.02724,0.0572 1.02723,0.0627 1.02724,0.0624 1.02723,0.0493 1.02724,0.0508 1.02723,0.0459 1.02724,0.0508 1.02723,0.0476 1.02724,0.0408 1.02723,0.03951 1.02724,0.04787 1.02723,0.04426 v -6.37952 0 l -1.02723,-0.0436 -1.02724,-0.0532 -1.02723,-0.0518 -1.02724,-0.0528 -1.02723,-0.0429 -1.02724,-0.0552 -1.02723,-0.0566 -1.02724,-0.0572 -1.02723,-0.0604 -1.02724,-0.0564 -1.02723,-0.0642 -1.02724,-0.069 -1.02723,-0.0637 -1.02724,-0.0791 -1.02723,-0.0625 -1.02723,-0.0714 -1.02724,-0.0798 -1.02723,-0.0799 -1.02724,-0.0779 -1.02723,-0.0782 -1.02724,-0.0879 -1.02723,-0.082 -1.02724,-0.0879 -1.02723,-0.0992 -1.02724,-0.0964 -1.02723,-0.099 -1.02724,-0.0905 -1.02723,-0.10533 -1.02724,-0.11288 -1.02723,-0.11223 -1.02724,-0.10778 -1.02723,-0.11751 -1.02724,-0.1201 -1.02723,-0.12925 -1.02724,-0.12254 -1.02723,-0.11981 -1.02724,-0.14556 -1.02723,-0.13037 -1.02723,-0.14687 -1.02724,-0.1521 -1.02723,-0.14904 -1.02724,-0.16838 -1.02724,-0.15944 -1.02723,-0.16581 -1.027234,-0.16427 -1.027235,-0.17811 -1.027235,-0.17791 -1.027235,-0.18885 -1.027235,-0.18703 -1.027234,-0.2009 -1.027235,-0.19426 -1.027235,-0.21269 -1.027235,-0.21427 -1.027235,-0.22319 -1.027235,-0.24793 -1.027234,-0.23153 -1.027235,-0.25942 -1.027235,-0.24072 -1.027235,-0.26868 -1.027235,-0.26751 -1.027235,-0.28113 -1.027234,-0.28688 -1.027235,-0.29655 -1.027235,-0.30844 -1.027235,-0.30955 -1.027235,-0.32697 -1.027235,-0.33645 -1.027234,-0.35447 -1.027235,-0.35895 -1.027235,-0.38319 -1.027235,-0.38846 -1.027235,-0.40494 -1.027234,-0.41739 -1.027235,-0.44217 -1.027235,-0.45321 -1.027235,-0.46851 -1.027235,-0.4817 -1.027235,-0.5143 -1.027234,-0.51611 -1.027235,-0.54652 -1.027235,-0.55664 -1.027235,-0.60266 -1.027235,-0.59781 -1.027235,-0.65609 -1.027234,-0.65545 -1.027235,-0.70721 -1.027235,-0.73179 -1.027235,-0.7908 -1.027235,-0.80862 -1.027235,-0.87028 -1.027234,-0.92873 -1.027235,-0.99843 -1.027235,-1.07211 -1.027235,-1.19012 -1.027235,-1.2858 -1.027234,-1.4538 -1.027235,-1.64378 -1.027235,-1.90239 -1.027235,-2.22752 z"
       style="stroke:#4d7096;stroke-opacity:0.2" /><path
       id="m2190c1009a"
       d="m 43.48279,-145.11108 v 0.0813 l 1.027235,0.46484 1.027235,0.29325 1.027235,0.23099 1.027235,0.21928 1.027234,0.20292 1.027235,0.19023 1.027235,0.16546 1.027235,0.15058 1.027235,0.13903 1.027234,0.12265 1.027235,0.12486 1.027235,0.11956 1.027235,0.10822 1.027235,0.10467 1.027235,0.0971 1.027234,0.0924 1.027235,0.0945 1.027235,0.09 1.027235,0.0832 1.027235,0.0809 1.027235,0.0805 1.027234,0.0752 1.027235,0.0723 1.027235,0.069 1.027235,0.0685 1.027235,0.0692 1.027235,0.0663 1.027234,0.066 1.027235,0.0633 1.027235,0.0589 1.027235,0.0598 1.027235,0.0585 1.027234,0.0574 1.027235,0.0563 1.027235,0.056 1.027235,0.051 1.027235,0.0486 1.027235,0.0519 1.027234,0.0501 1.027235,0.0511 1.027235,0.05 1.027235,0.0487 1.027235,0.0467 1.027235,0.0482 1.027234,0.0471 1.027235,0.048 1.027235,0.0439 1.027235,0.0438 1.027235,0.044 1.027235,0.0431 1.027234,0.0427 1.027235,0.0442 1.027235,0.0413 1.027235,0.0406 1.027235,0.0415 1.027234,0.0373 1.02723,0.0363 1.02724,0.0402 1.02724,0.0385 1.02723,0.0352 1.02724,0.0375 1.02723,0.0359 1.02723,0.0357 1.02724,0.0356 1.02723,0.0349 1.02724,0.0329 1.02723,0.0351 1.02724,0.0332 1.02723,0.033 1.02724,0.0329 1.02723,0.0337 1.02724,0.0316 1.02723,0.0315 1.02724,0.0308 1.02723,0.0305 1.02724,0.0301 1.02723,0.0309 1.02724,0.0301 1.02723,0.0291 1.02724,0.029 1.02723,0.0293 1.02724,0.0281 1.02723,0.0286 1.02724,0.028 1.02723,0.0276 1.02723,0.0274 1.02724,0.0276 1.02723,0.0272 1.02724,0.0257 1.02723,0.0256 1.02724,0.0253 1.02723,0.0263 1.02724,0.0263 1.02723,0.0255 1.02724,0.0257 1.02723,0.025 1.02724,0.0256 1.02723,0.0252 1.02724,0.0218 1.02723,0.0248 v -2.10478 0 l -1.02723,-0.0222 -1.02724,-0.0147 -1.02723,-0.0234 -1.02724,-0.0208 -1.02723,-0.0211 -1.02724,-0.0215 -1.02723,-0.0213 -1.02724,-0.0204 -1.02723,-0.0234 -1.02724,-0.0214 -1.02723,-0.0218 -1.02724,-0.0226 -1.02723,-0.0215 -1.02724,-0.0213 -1.02723,-0.0234 -1.02723,-0.0235 -1.02724,-0.0234 -1.02723,-0.0233 -1.02724,-0.0244 -1.02723,-0.0228 -1.02724,-0.0249 -1.02723,-0.0246 -1.02724,-0.0229 -1.02723,-0.0255 -1.02724,-0.0255 -1.02723,-0.0246 -1.02724,-0.027 -1.02723,-0.0265 -1.02724,-0.0252 -1.02723,-0.0277 -1.02724,-0.0261 -1.02723,-0.0272 -1.02724,-0.0278 -1.02723,-0.0264 -1.02724,-0.0278 -1.02723,-0.0285 -1.02724,-0.0281 -1.02723,-0.029 -1.02723,-0.0291 -1.02724,-0.0291 -1.02723,-0.0315 -1.02724,-0.0277 -1.02724,-0.0328 -1.02723,-0.0302 -1.027234,-0.0313 -1.027235,-0.0293 -1.027235,-0.0323 -1.027235,-0.033 -1.027235,-0.0329 -1.027234,-0.0342 -1.027235,-0.0352 -1.027235,-0.0354 -1.027235,-0.0327 -1.027235,-0.0369 -1.027235,-0.0345 -1.027234,-0.0357 -1.027235,-0.0385 -1.027235,-0.0367 -1.027235,-0.0375 -1.027235,-0.0382 -1.027235,-0.0379 -1.027234,-0.0388 -1.027235,-0.0383 -1.027235,-0.0389 -1.027235,-0.0389 -1.027235,-0.044 -1.027235,-0.0431 -1.027234,-0.0421 -1.027235,-0.0418 -1.027235,-0.042 -1.027235,-0.0429 -1.027235,-0.044 -1.027234,-0.0458 -1.027235,-0.0452 -1.027235,-0.0461 -1.027235,-0.0476 -1.027235,-0.0502 -1.027235,-0.0518 -1.027234,-0.0507 -1.027235,-0.0498 -1.027235,-0.0531 -1.027235,-0.0544 -1.027235,-0.0563 -1.027235,-0.0561 -1.027234,-0.0599 -1.027235,-0.062 -1.027235,-0.063 -1.027235,-0.062 -1.027235,-0.0694 -1.027235,-0.0732 -1.027234,-0.0737 -1.027235,-0.0748 -1.027235,-0.0826 -1.027235,-0.0899 -1.027235,-0.0975 -1.027234,-0.0997 -1.027235,-0.1133 -1.027235,-0.12884 -1.027235,-0.14985 z"
       style="stroke:#22384d;stroke-opacity:0.2" /><path
       id="m9c13f5ca82"
       d="m 43.48279,-145.10868 v 0.11652 h 1.027235 1.027235 1.027235 1.027235 1.027234 1.027235 1.027235 1.027235 1.027235 1.027234 1.027235 1.027235 1.027235 1.027235 1.027235 1.027234 1.027235 1.027235 1.027235 1.027235 1.027235 1.027234 1.027235 1.027235 1.027235 1.027235 1.027235 1.027234 1.027235 1.027235 1.027235 1.027235 1.027234 1.027235 1.027235 1.027235 1.027235 1.027235 1.027234 1.027235 1.027235 1.027235 1.027235 1.027235 1.027234 1.027235 1.027235 1.027235 1.027235 1.027235 1.027234 1.027235 1.027235 1.027235 1.027235 1.027234 1.02723 1.02724 1.02724 1.02723 1.02724 1.02723 1.02723 1.02724 1.02723 1.02724 1.02723 1.02724 1.02723 1.02724 1.02723 1.02724 1.02723 1.02724 1.02723 1.02724 1.02723 1.02724 1.02723 1.02724 1.02723 1.02724 1.02723 1.02724 1.02723 1.02723 1.02724 1.02723 1.02724 1.02723 1.02724 1.02723 1.02724 1.02723 1.02724 1.02723 1.02724 1.02723 1.02724 1.02723 v -0.11652 0 h -1.02723 -1.02724 -1.02723 -1.02724 -1.02723 -1.02724 -1.02723 -1.02724 -1.02723 -1.02724 -1.02723 -1.02724 -1.02723 -1.02724 -1.02723 -1.02723 -1.02724 -1.02723 -1.02724 -1.02723 -1.02724 -1.02723 -1.02724 -1.02723 -1.02724 -1.02723 -1.02724 -1.02723 -1.02724 -1.02723 -1.02724 -1.02723 -1.02724 -1.02723 -1.02724 -1.02723 -1.02724 -1.02723 -1.02723 -1.02724 -1.02723 -1.02724 -1.02724 -1.02723 H 99.980706 98.953471 97.926236 96.899001 95.871766 94.844532 93.817297 92.790062 91.762827 90.735592 89.708357 88.681123 87.653888 86.626653 85.599418 84.572183 83.544948 82.517714 81.490479 80.463244 79.436009 78.408774 77.381539 76.354305 75.32707 74.299835 73.2726 72.245365 71.218131 70.190896 69.163661 68.136426 67.109191 66.081956 65.054722 64.027487 63.000252 61.973017 60.945782 59.918547 58.891313 57.864078 56.836843 55.809608 54.782373 53.755138 52.727904 51.700669 50.673434 49.646199 48.618964 47.59173 46.564495 45.53726 44.510025 Z"
       style="stroke:#000000;stroke-opacity:0.2" /><path
       id="mce3628a802"
       d="M 0,0 V -1.5"
       style="stroke:#000000;stroke-width:0.5" /><path
       id="CMUSansSerif-30"
       d="m 263,1984 v 110 q 0,250 9,434 9,185 60,489 52,305 141,519 90,214 275,422 186,208 443,305 197,78 403,78 178,0 345,-49 167,-48 353,-192 186,-144 323,-369 138,-225 227,-619 89,-393 89,-903 v -134 q 0,-244 -9,-436 -9,-192 -61,-488 Q 2809,856 2717,642 2625,428 2439,226 2253,25 1997,-72 q -213,-72 -403,-69 -178,0 -342,46 -164,45 -354,182 -189,138 -323,361 -134,224 -223,621 -89,397 -89,915 z m 500,0 q 0,-428 57,-752 58,-323 141,-506 83,-182 201,-295 119,-112 220,-147 102,-34 218,-34 147,0 275,67 128,67 262,236 135,169 214,537 80,369 80,901 v 378 q 0,487 -80,818 -79,332 -217,486 -137,155 -265,213 -128,58 -275,58 -147,0 -275,-58 -128,-58 -263,-213 -134,-154 -214,-490 -79,-336 -79,-814 z"
       transform="scale(0.015625)" /><path
       id="CMUSansSerif-35"
       d="m 244,488 215,356 q 360,-588 1000,-588 319,0 578,247 260,247 260,810 0,525 -189,778 -189,253 -464,253 -435,0 -703,-513 H 506 V 4191 H 2663 V 3781 H 972 V 2472 q 325,262 684,259 494,0 856,-413 363,-412 363,-1012 0,-615 -421,-1031 -420,-416 -988,-416 -366,0 -691,170 -325,171 -531,459 z"
       transform="scale(0.015625)" /><path
       id="CMUSansSerif-31"
       d="m 575,3547 v 369 q 769,0 1222,425 h 122 V 378 h 800 V 0 H 609 v 378 h 800 V 3694 Q 1028,3547 575,3547 Z"
       transform="scale(0.015625)" /><path
       id="CMUSansSerif-32"
       d="m 263,3291 q 312,1050 1240,1050 616,0 994,-405 378,-405 378,-967 0,-225 -61,-410 -61,-184 -238,-392 Q 2400,1959 2265,1831 2131,1703 1806,1416 1634,1263 775,447 l 2100,6 V 0 H 313 v 416 l 834,825 q 50,50 220,204 171,155 227,209 56,55 193,192 138,138 189,211 52,74 146,199 94,125 125,220 31,96 64,221 33,125 33,253 0,409 -260,690 -259,282 -662,282 -219,0 -389,-99 -170,-98 -256,-242 -86,-143 -141,-287 -55,-144 -73,-247 l -25,-109 z"
       transform="scale(0.015625)" /><path
       id="CMUSansSerif-54"
       d="m 225,3988 v 421 h 3891 v -421 h -910 l -750,6 V 0 h -568 v 3994 l -757,-6 z"
       transform="scale(0.015625)" /><path
       id="CMUSansSerif-69"
       d="m 475,3775 v 572 h 575 V 3775 Z M 519,0 V 2847 H 997 V 0 Z"
       transform="scale(0.015625)" /><path
       id="CMUSansSerif-6d"
       d="m 513,0 v 2881 h 465 v -450 q 372,482 935,482 621,0 812,-519 391,519 969,519 244,0 419,-80 175,-80 260,-186 86,-106 134,-272 49,-166 55,-272 7,-106 7,-259 V 0 h -506 v 1797 q 0,12 0,39 0,27 -13,103 -12,77 -34,144 -22,67 -68,150 -45,83 -109,144 -64,61 -166,103 -101,42 -229,42 -341,0 -497,-288 -156,-287 -156,-696 V 0 h -500 v 1797 q 0,109 -4,173 -3,64 -37,183 -34,119 -95,189 -61,71 -186,125 -125,55 -306,55 -341,0 -496,-288 -154,-287 -154,-696 V 0 Z"
       transform="scale(0.015625)" /><path
       id="CMUSansSerif-65"
       d="m 219,1447 q 0,634 386,1068 386,435 904,435 191,0 364,-61 174,-61 350,-202 177,-140 292,-422 116,-281 135,-671 V 1409 H 666 q 18,-481 293,-783 275,-301 654,-301 487,0 971,353 l 41,-422 Q 2138,-69 1613,-72 1003,-72 611,379 219,831 219,1447 Z m 478,312 h 1587 q -37,250 -137,423 -100,174 -225,247 -125,74 -224,99 -98,25 -189,25 -325,0 -538,-250 -212,-250 -274,-544 z"
       transform="scale(0.015625)" /><path
       id="m29e4647a28"
       d="M 0,0 H 1.5"
       style="stroke:#000000;stroke-width:0.5" /><path
       id="CMUSansSerif-2e"
       d="m 616,0 v 538 h 537 V 0 Z"
       transform="scale(0.015625)" /><path
       id="CMUSansSerif-34"
       d="m 172,1094 q 0,0 0,309 0,78 72,197 l 1547,2591 h 590 V 1484 h 635 V 1094 H 2381 V 0 h -512 v 1094 z m 500,390 H 1906 V 3956 Q 1869,3719 1725,3392 1581,3066 1453,2839 1325,2613 891,1863 750,1619 672,1484 Z"
       transform="scale(0.015625)" /><path
       id="CMUSansSerif-36"
       d="m 269,2069 q 0,959 486,1615 486,657 1223,657 331,0 685,-128 v -385 q -366,135 -685,135 -372,0 -647,-260 -275,-259 -391,-589 -115,-330 -134,-683 197,250 486,387 289,138 596,138 421,0 696,-390 341,-475 341,-1132 0,-709 -441,-1178 -371,-397 -871,-397 -179,0 -349,52 -170,51 -356,198 -186,147 -324,380 -137,233 -226,641 -89,408 -89,939 z M 813,1409 Q 934,256 1606,256 q 325,0 514,220 189,221 249,490 31,140 31,428 0,556 -178,840 -213,332 -584,332 -360,0 -590,-291 -229,-291 -229,-694 0,-56 12,-172 z"
       transform="scale(0.015625)" /><path
       id="CMUSansSerif-38"
       d="m 263,1153 q 0,360 217,653 217,294 673,460 -306,97 -553,342 -247,245 -247,611 0,447 358,784 358,338 883,338 531,0 885,-341 355,-341 355,-781 0,-300 -198,-553 -198,-253 -602,-400 354,-110 622,-401 269,-290 269,-718 0,-513 -385,-901 -384,-387 -946,-387 -556,0 -944,384 -387,385 -387,910 z m 518,6 q 0,-409 223,-656 224,-247 590,-247 353,0 582,244 230,244 230,666 0,403 -227,653 -226,250 -585,250 -313,0 -563,-228 -250,-228 -250,-682 z m 19,2054 q 0,-341 220,-546 221,-204 568,-204 359,0 579,209 221,209 221,541 0,340 -221,545 -220,205 -573,205 -360,0 -577,-210 -217,-209 -217,-540 z"
       transform="scale(0.015625)" /><path
       id="CMUSansSerif-4e"
       d="m 609,0 v 4441 h 800 L 3163,959 3413,447 v 3994 h 496 V 0 H 3109 L 1356,3481 1106,3994 V 0 Z"
       transform="scale(0.015625)" /><path
       id="CMUSansSerif-6f"
       d="m 191,1416 q 0,647 414,1090 414,444 989,444 603,0 1006,-464 403,-464 403,-1077 Q 3003,775 2579,351 2156,-72 1593,-72 1031,-72 611,354 191,781 191,1416 Z m 500,62 q 0,-562 271,-850 272,-287 631,-287 360,0 632,290 272,291 272,847 0,538 -272,806 -272,269 -631,269 -353,0 -628,-269 -275,-268 -275,-806 z"
       transform="scale(0.015625)" /><path
       id="CMUSansSerif-72"
       d="m 519,0 v 2881 h 447 v -578 q 78,122 185,234 108,113 367,241 260,128 570,135 v -429 q -166,-6 -333,-61 -167,-54 -350,-173 Q 1222,2131 1109,1887 997,1644 997,1319 V 0 Z"
       transform="scale(0.015625)" /><path
       id="CMUSansSerif-61"
       d="m 281,722 q 0,237 180,414 180,177 470,262 291,86 569,128 278,43 559,43 v 215 q -12,410 -165,591 -160,191 -403,191 -494,0 -960,-325 l -37,428 q 481,281 1003,281 441,0 739,-291 298,-290 323,-706 V 0 H 2075 V 225 Q 2050,200 1956,142 1863,84 1594,6 1325,-72 1013,-72 647,-72 464,187 281,447 281,722 Z m 469,6 q 0,-172 169,-288 169,-115 425,-115 275,0 495,115 220,116 220,391 v 403 q -196,0 -401,-25 -205,-25 -422,-77 Q 1019,1081 884,975 750,869 750,728 Z"
       transform="scale(0.015625)" /><path
       id="CMUSansSerif-6c"
       d="M 519,0 V 4622 H 997 V 0 Z"
       transform="scale(0.015625)" /><path
       id="CMUSansSerif-7a"
       d="m 172,0 v 263 l 1703,2209 -191,-9 H 263 v 384 H 2547 V 2591 L 850,397 h 1288 l 134,6 h 294 V 0 Z"
       transform="scale(0.015625)" /><path
       id="CMUSansSerif-64"
       d="m 225,1416 q 0,634 333,1068 333,435 805,435 487,0 928,-353 v 2056 h 487 V 0 H 2272 V 331 Q 1856,-72 1325,-72 850,-72 537,375 225,822 225,1416 Z m 497,6 q 0,-569 268,-833 269,-264 598,-264 268,0 476,183 208,183 208,348 v 1225 q 0,122 -134,247 -207,191 -475,194 h -13 q -153,0 -303,-58 -150,-58 -297,-177 -147,-118 -238,-342 -90,-223 -90,-523 z"
       transform="scale(0.015625)" /><path
       id="CMUSansSerif-20"
       transform="scale(0.015625)"
       d="" /><path
       id="CMUSansSerif-41"
       d="m 172,0 1672,4441 h 569 L 4078,0 H 3488 L 2994,1306 H 1141 L 653,0 Z m 1103,1663 h 1584 q -756,2093 -790,2331 -85,-391 -794,-2331 z"
       transform="scale(0.015625)" /><path
       id="CMUSansSerif-3a"
       d="m 616,0 v 538 h 537 V 0 Z m 0,2309 v 538 h 537 v -538 z"
       transform="scale(0.015625)" /><path
       id="Cmmi10-41"
       d="m 288,0 q -63,0 -63,84 25,141 81,141 260,0 449,103 189,103 326,319 13,12 13,12 l 2284,3854 q 50,68 122,68 h 84 q 19,0 38,-8 19,-7 33,-25 14,-17 14,-35 L 4056,378 q 0,-28 28,-84 63,-69 479,-69 65,0 65,-84 Q 4606,56 4592,28 4578,0 4519,0 H 2919 q -60,0 -60,84 35,141 85,141 506,0 537,172 l -97,1056 H 1806 L 1294,594 q -47,-69 -47,-160 0,-112 108,-161 108,-48 239,-48 62,0 62,-84 Q 1634,50 1621,25 1609,0 1550,0 Z m 1643,1678 h 1428 l -190,2072 z"
       transform="scale(0.015625)" /><path
       id="Cmmi10-3d"
       d="m 359,-1472 q 0,19 7,25 l 2225,6169 q 12,37 43,57 32,21 72,21 57,0 92,-35 36,-34 36,-93 v -25 L 609,-1522 q -37,-78 -121,-78 -54,0 -92,38 -37,37 -37,90 z"
       transform="scale(0.015625)" /><path
       id="Cmr10-30-6"
       d="m 1600,-141 q -784,0 -1067,645 -283,646 -283,1537 0,556 101,1046 102,491 403,833 302,343 846,343 422,0 690,-207 269,-206 410,-533 141,-326 192,-700 52,-373 52,-782 0,-550 -102,-1030 -101,-480 -398,-816 -297,-336 -844,-336 z m 0,166 q 356,0 531,365 175,366 216,810 41,444 41,944 0,481 -41,887 -41,407 -215,736 -173,330 -532,330 -362,0 -537,-332 -175,-331 -216,-736 -41,-404 -41,-885 0,-356 17,-672 18,-316 93,-652 75,-336 242,-566 167,-229 442,-229 z"
       transform="scale(0.015625)" /><path
       id="Cmmi10-bd"
       d="m 178,-1203 q 0,37 6,50 l 635,2556 q 90,344 310,673 221,330 533,541 313,211 660,211 278,0 486,-145 208,-145 312,-381 105,-236 105,-518 0,-309 -127,-640 Q 2972,813 2748,538 2525,263 2234,95 1944,-72 1625,-72 1438,-72 1272,39 1106,150 1013,331 L 634,-1178 q -18,-91 -93,-147 -75,-56 -169,-56 -78,0 -136,49 -58,48 -58,129 z M 1638,97 q 340,0 591,348 252,349 385,819 133,470 133,795 0,244 -107,424 -106,180 -331,180 -278,0 -491,-211 -212,-211 -340,-496 -128,-284 -209,-593 L 1094,647 Q 1134,416 1276,256 1419,97 1638,97 Z"
       transform="scale(0.015625)" /><path
       id="CMUSansSerif-28"
       d="m 513,1600 q 0,2106 1221,3200 h 397 q -359,-384 -518,-653 -604,-1013 -600,-2547 0,-1925 912,-2981 l 206,-219 H 1734 Q 513,-494 513,1600 Z"
       transform="scale(0.015625)" /><path
       id="Cmr10-36"
       d="m 1600,-141 q -397,0 -663,211 -265,211 -411,547 -145,336 -201,705 -56,369 -56,747 0,506 197,1015 197,510 579,844 383,335 908,335 219,0 408,-83 189,-83 297,-244 108,-161 108,-389 0,-131 -89,-220 -89,-89 -221,-89 -125,0 -216,90 -90,91 -90,219 0,125 90,215 91,91 216,91 h 35 q -82,116 -230,170 -148,55 -308,55 -194,0 -358,-85 -164,-84 -295,-228 -131,-143 -219,-317 -87,-173 -136,-395 -48,-222 -61,-416 -12,-193 -12,-487 112,263 318,430 207,167 466,167 285,0 519,-116 234,-115 403,-320 169,-205 258,-468 89,-262 89,-530 0,-375 -167,-715 Q 2591,259 2287,59 1984,-141 1600,-141 Z m 0,204 q 247,0 397,112 150,113 220,298 71,186 88,375 17,190 17,465 0,362 -35,618 -34,257 -187,452 -153,195 -469,195 -259,0 -426,-175 -167,-175 -244,-442 -77,-267 -77,-514 0,-84 7,-128 0,-10 -2,-16 -1,-6 -5,-15 0,-275 56,-557 57,-281 216,-475 160,-193 444,-193 z"
       transform="scale(0.015625)" /><path
       id="CMUSansSerif-63"
       d="m 225,1428 q 0,594 383,1058 383,464 1023,464 300,0 498,-58 199,-58 496,-223 l -78,-422 q -313,197 -478,244 -185,50 -444,50 -434,0 -669,-330 -234,-330 -234,-783 0,-475 250,-781 250,-306 647,-306 500,0 1006,343 l 31,-428 Q 2150,-69 1613,-72 1025,-72 625,367 225,806 225,1428 Z"
       transform="scale(0.015625)" /><path
       id="CMUSansSerif-73"
       d="m 172,219 78,434 q 13,-6 83,-48 70,-42 106,-61 36,-19 115,-58 80,-39 147,-61 68,-22 157,-47 89,-25 189,-36 100,-11 206,-11 319,0 458,136 139,136 139,302 0,159 -116,265 -115,107 -243,144 -63,19 -285,64 -222,46 -328,77 -262,84 -464,285 -201,202 -201,502 0,147 43,278 44,132 150,269 107,138 327,217 220,80 526,80 460,0 935,-197 l -69,-425 q -6,6 -74,36 -67,30 -76,36 -9,6 -70,31 -61,25 -85,33 -23,8 -80,30 -56,22 -89,25 -32,3 -93,18 -61,16 -108,19 -47,3 -111,6 -64,4 -136,4 -294,0 -416,-119 -121,-119 -121,-272 0,-212 170,-305 170,-92 476,-145 307,-53 435,-112 231,-104 393,-309 163,-204 163,-491 0,-147 -44,-288 Q 2216,384 2109,243 2003,103 1783,15 1563,-72 1259,-72 697,-69 172,219 Z"
       transform="scale(0.015625)" /><path
       id="CMUSansSerif-2f"
       d="m 359,-1403 q 0,44 57,212 l 2022,5800 q 62,185 206,185 78,0 134,-55 56,-55 56,-136 0,-44 -43,-181 L 756,-1409 q -78,-191 -206,-191 -78,0 -135,56 -56,56 -56,141 z"
       transform="scale(0.015625)" /><path
       id="CMUSansSerif-29"
       d="m 353,-1600 q 166,178 267,300 102,122 285,421 183,298 289,604 106,306 192,806 86,500 86,1069 0,594 -96,1112 -95,519 -201,820 -106,302 -308,611 -201,310 -275,394 -73,85 -239,263 H 744 Q 1972,3700 1972,1606 1972,-500 744,-1600 Z"
       transform="scale(0.015625)" /><path
       id="CMUSansSerif-37"
       d="m 263,3744 v 453 l 2662,-6 V 3775 Q 2247,2994 1878,1989 1509,984 1509,-72 H 966 q 0,1013 371,1995 372,983 1154,1821 z"
       transform="scale(0.015625)" /><clipPath
       id="p773a419f20"><rect
         x="34.922501"
         y="7.1999998"
         width="196.88667"
         height="129.10684"
         id="rect131" /></clipPath></defs><g
     inkscape:label="Layer 1"
     inkscape:groupmode="layer"
     id="layer1"
     transform="translate(-1100,-699.99994)"><rect
       style="fill:#474747;fill-opacity:0;stroke-width:0.264583"
       id="rect1"
       width="100"
       height="100"
       x="1100"
       y="699.99994" /><rect
       style="fill:#f5f7f7;fill-opacity:1;stroke-width:0.264583"
       id="rect2"
       width="100"
       height="100"
       x="1400"
       y="699.99994" /><rect
       style="fill:#d2dcdc;fill-opacity:1;stroke-width:0.264583"
       id="rect2-9"
       width="100"
       height="100"
       x="1100"
       y="699.99994"
       inkscape:transform-center-x="108.67138"
       inkscape:transform-center-y="-28.12671" /><rect
       style="fill:#edebe9;fill-opacity:1;stroke-width:0.264583"
       id="rect2-9-0"
       width="100"
       height="100"
       x="1300"
       y="699.99994"
       inkscape:transform-center-x="108.67138"
       inkscape:transform-center-y="-28.12671" /><rect
       style="fill:#ffece6;fill-opacity:1;stroke-width:0.264583"
       id="rect2-9-0-0"
       width="100"
       height="100"
       x="1500"
       y="699.99994"
       inkscape:transform-center-x="108.67138"
       inkscape:transform-center-y="-28.12671" /><rect
       style="fill:#fff7ef;fill-opacity:1;stroke-width:0.264583"
       id="rect2-9-0-0-4"
       width="100"
       height="100"
       x="1600"
       y="699.99994"
       inkscape:transform-center-x="108.67138"
       inkscape:transform-center-y="-28.12671" /><rect
       style="fill:#474747;fill-opacity:0;stroke-width:0.264583"
       id="rect1-4"
       width="100"
       height="100"
       x="1100"
       y="799.99994" /><rect
       style="fill:#d40000;fill-opacity:1;stroke-width:0.264583"
       id="rect2-7"
       width="100"
       height="100"
       x="1300"
       y="999.99994" /><rect
       style="fill:#ff4848;fill-opacity:1;stroke-width:0.264583"
       id="rect2-9-4"
       width="100"
       height="100"
       x="1400"
       y="999.99994"
       inkscape:transform-center-x="108.67138"
       inkscape:transform-center-y="-28.12671" /><rect
       style="fill:#ffa800;fill-opacity:1;stroke-width:0.264583"
       id="rect2-9-0-1"
       width="100"
       height="100"
       x="1600"
       y="999.99994"
       inkscape:transform-center-x="108.67138"
       inkscape:transform-center-y="-28.12671" /><rect
       style="fill:#8d0000;fill-opacity:1;stroke-width:0.264583;stroke-linecap:butt;stroke-linejoin:round"
       id="rect2-7-0"
       width="100"
       height="100"
       x="1200"
       y="999.99994" /><rect
       style="fill:#52000b;fill-opacity:1;stroke-width:0.264583;stroke-linecap:butt;stroke-linejoin:round"
       id="rect2-9-4-6"
       width="100"
       height="100"
       x="1100"
       y="999.99994"
       inkscape:transform-center-x="108.67138"
       inkscape:transform-center-y="-28.12671" /><rect
       style="fill:#ff5900;fill-opacity:1;stroke-width:0.264583;stroke-linecap:butt;stroke-linejoin:round"
       id="rect2-9-0-1-5"
       width="100"
       height="100"
       x="1500"
       y="999.99994"
       inkscape:transform-center-x="108.67138"
       inkscape:transform-center-y="-28.12671" /><rect
       style="fill:#22384d;fill-opacity:1;stroke-width:0.264583"
       id="rect2-9-0-0-8"
       width="100"
       height="100"
       x="1100"
       y="799.99994"
       inkscape:transform-center-x="108.67138"
       inkscape:transform-center-y="-28.12671" /><rect
       style="fill:#4d7096;fill-opacity:1;stroke-width:0.264583"
       id="rect2-9-0-0-4-5"
       width="100"
       height="100"
       x="1400"
       y="799.99994"
       inkscape:transform-center-x="108.67138"
       inkscape:transform-center-y="-28.12671" /><rect
       style="fill:#474747;fill-opacity:0;stroke-width:0.264583"
       id="rect1-4-3"
       width="100"
       height="100"
       x="1100"
       y="899.99994" /><rect
       style="fill:#ffffff;fill-opacity:1;stroke-width:0.264583"
       id="rect2-7-3"
       width="100"
       height="100"
       x="1100"
       y="899.99994" /><rect
       style="fill:#000000;fill-opacity:1;stroke-width:0.264583"
       id="rect2-9-4-7"
       width="100"
       height="100"
       x="1100"
       y="899.99994"
       inkscape:transform-center-x="108.67138"
       inkscape:transform-center-y="-28.12671" /><rect
       style="fill:#949494;fill-opacity:1;stroke-width:0.264583;stroke-linecap:butt;stroke-linejoin:round"
       id="rect2-9-4-7-8"
       width="100"
       height="100"
       x="1400"
       y="899.99994"
       inkscape:transform-center-x="108.67138"
       inkscape:transform-center-y="-28.12671" /><rect
       style="fill:#616161;fill-opacity:1;stroke-width:0.264583;stroke-linecap:butt;stroke-linejoin:round"
       id="rect2-9-4-7-8-8"
       width="100"
       height="100"
       x="1300"
       y="900"
       inkscape:transform-center-x="108.67138"
       inkscape:transform-center-y="-28.12671" /><rect
       style="fill:#313131;fill-opacity:1;stroke-width:0.264583;stroke-linecap:butt;stroke-linejoin:round"
       id="rect2-9-4-7-8-8-9"
       width="100"
       height="100"
       x="1200"
       y="899.99994"
       inkscape:transform-center-x="108.67138"
       inkscape:transform-center-y="-28.12671" /><rect
       style="fill:#00464c;fill-opacity:1;stroke-width:0.264583;stroke-linecap:butt;stroke-linejoin:round"
       id="rect2-9-4-7-0"
       width="100"
       height="100"
       x="1300"
       y="800"
       inkscape:transform-center-x="108.67138"
       inkscape:transform-center-y="-28.12671" /><rect
       style="fill:#073642;fill-opacity:1;stroke-width:0.264583"
       id="rect2-9-0-1-7"
       width="100"
       height="100"
       x="1200"
       y="799.99994"
       inkscape:transform-center-x="108.67138"
       inkscape:transform-center-y="-28.12671" /><rect
       style="fill:#4682b4;fill-opacity:1;stroke-width:0.264583"
       id="rect2-9-0-0-8-3"
       width="100"
       height="100"
       x="1500"
       y="799.99994"
       inkscape:transform-center-x="108.67138"
       inkscape:transform-center-y="-28.12671" /><rect
       style="fill:#c8c8c8;fill-opacity:1;stroke-width:0.264583"
       id="rect2-9-0-0-4-5-2"
       width="100"
       height="100"
       x="1500"
       y="899.99994"
       inkscape:transform-center-x="108.67138"
       inkscape:transform-center-y="-28.12671" /><rect
       style="fill:#e3dedb;fill-opacity:1;stroke-width:0.264583"
       id="rect2-9-0-0-1"
       width="100"
       height="100"
       x="1200"
       y="699.99994"
       inkscape:transform-center-x="108.67138"
       inkscape:transform-center-y="-28.12671" /><rect
       style="fill:#8cadcd;fill-opacity:1;stroke-width:0.264583"
       id="rect2-9-0-0-4-5-0"
       width="100"
       height="100"
       x="1600"
       y="799.99994"
       inkscape:transform-center-x="108.67138"
       inkscape:transform-center-y="-28.12671" /><rect
       style="fill:#ffffff;fill-opacity:1;stroke-width:0.264583"
       id="rect2-9-0-0-4-5-2-2"
       width="100"
       height="100"
       x="1600"
       y="899.99994"
       inkscape:transform-center-x="108.67138"
       inkscape:transform-center-y="-28.12671" /></g></svg>
